<svg id="Capa_1" enable-background="new 0 0 512 512" height="512" viewBox="0 0 512 512" width="512" xmlns="http://www.w3.org/2000/svg"><g><path d="m91.309 158.261h19.961v36.342h-19.961z" fill="#d19a6e"/><path d="m362.82 265.522-75.375 60.3c-6.156 4.925-11.406 10.887-15.512 17.617l-64.183 105.204 30.697-.265 69.332-92.531s89.62-58.57 89.62-58.57l11.996-46.574z" fill="#5d5360"/><path d="m210.396 444.673-2.382 24.081h21.964c4.676 0 8.468-3.792 8.468-8.468v-11.908z" fill="#f4dbb3"/><path d="m427.668 277.412-2.549-11.896-35.483-4.934-51.435 76.665c-5.659 7.923-6.292 18.383-1.63 26.931l43.185 79.172 18.234 2.327 15.638-10.795-42.34-84.68 49.503-49.503c6.093-6.093 8.682-14.86 6.877-23.287z" fill="#6f6571"/><path d="m489.41 69.168-16.27.079-34.108 43.852-171.438 73.473c-4.216 1.807-8.756 2.739-13.343 2.739h-52.324v25.404h58.125c6.371 0 12.701-1.027 18.745-3.042l41.682-13.894 75.504 67.744h29.136l-19.96-93.148 49.669-28.383c6.299-3.599 11.567-8.757 15.3-14.978l25.213-42.022z" fill="#ff9a9f"/><path d="m321.112 197.631-.632.147 42.34 67.744h33.164l-49.596-59.429c-6.15-7.369-15.929-10.643-25.276-8.462z" fill="#ff8086"/><path d="m151.12 392.542-25.404-16.936-39.376 55.128c-1.823 2.552-2.086 5.903-.683 8.709l9.975 19.95c2.869 5.738 8.733 9.362 15.148 9.362h9.199c2.694 0 4.493-2.778 3.391-5.236l-11.413-25.46z" fill="#d19a6e"/><path d="m90.353 206.246-7.133 64.531 25.56 3.213 16.936-8.468 25.404-59.276z" fill="#ffd064"/><path d="m115.131 208.892-32.484 2.457-7.739 54.173 14.842 3.71c7.648-18.431 24.562-59.112 25.381-60.34z" fill="#ffc250"/><path d="m210.396 443.35-84.68-118.552-59.276-16.936 125.642 154.636c3.216 3.958 8.044 6.256 13.144 6.256h24.268c4.733 0 6.741-6.025 2.955-8.864z" fill="#e2a975"/><path d="m125.716 265.522h-50.808l-66.81 21.245s-5.733 7.901-2.329 10.76c7.527 6.323 7.633 12.627 16.192 17.579 8.48 4.906 20.994 1.699 30.321 5.095 9.164 3.337 16.518 14.054 26.344 15.775 9.556 1.674 20.119-5.329 30.155-5.329 10.034 0 20.594 8.043 30.148 6.369 9.825-1.721 17.179-12.437 26.344-15.773 9.326-3.395 17.507 2.067 25.986-2.839 4.002-2.315 6.848-6.29 9.512-10.515l.103-8.252z" fill="#ffe07d"/><circle cx="108.78" cy="144.853" fill="#e2a975" r="25.404"/><circle cx="75.479" cy="119.883" fill="#966a5b" r="16.936"/><path d="m101.668 116.957c6.205-1.739 11.72-1.756 16.831-.072 2.895.956 5.093 3.475 5.603 6.574.532 3.227-.745 6.437-3.341 8.389l-10.363 7.763c-4.539 3.407-8.51 7.472-11.797 12.087l-7.154 10.035c-.8 1.123-2.097 1.784-3.481 1.774-.618-.007-1.221-.143-1.767-.4-.666-.313-1.252-.797-1.682-1.419-5.516-7.967-6.851-18.073-3.558-27.042 3.081-8.419 10.636-14.868 20.709-17.689z" fill="#785353"/><path d="m87.61 214.714h114.318v-25.404h-114.318c-7.015 0-12.702 5.687-12.702 12.702 0 7.015 5.687 12.702 12.702 12.702z" fill="#e2a975"/><path d="m315.43 125.487 14.523 34.241c2.739 6.458 10.195 9.473 16.653 6.734 6.458-2.739 9.473-10.195 6.734-16.653l-14.523-34.241z" fill="#9f6e50"/><path d="m495.341 86.992 14.875-24.791c2.954-4.925 2.179-11.229-1.882-15.29-5.324-5.324-14.109-4.777-18.73 1.166l-16.464 21.169z" fill="#b57f5f"/><circle cx="323.176" cy="119.598" fill="#b57f5f" r="25.404"/><path d="m295.653 108.927c4.625-11.934 16.246-19.543 28.934-18.937 9.1.444 17.575 5.732 23.224 14.515 3.823 5.941 5.425 11.736 4.887 17.716-.239 2.635-1.565 5.08-3.636 6.698-1.874 1.452-4.155 2.131-6.479 1.935-.239-.02-.469-.048-.698-.084l-4.833-.756c-4.446-.715-8.481-2.765-11.657-5.938l-6.85-6.844c-2.809-2.81-6.683-4.107-10.642-3.603l-7.754 1.022c-1.47.208-2.962-.408-3.883-1.581-.922-1.173-1.154-2.753-.613-4.143z" fill="#643c3e"/><circle cx="201.928" cy="202.012" fill="#b57f5f" r="12.702"/><path d="m372.335 465.187 41.293-10.193v-20.112l-33.872 8.468-11.643 11.643c-3.762 3.762-1.098 10.194 4.222 10.194z" fill="#f5ebcd"/><path d="m368.113 454.994-3.567 3.567c-3.762 3.762-1.097 10.193 4.223 10.193h36.392c4.676 0 8.468-3.792 8.468-8.468v-5.293h-45.516z" fill="#f4dbb3"/><path d="m201.48 299.915-.609-.277c-1.552 1.824-3.27 3.41-5.283 4.575-8.479 4.906-20.991 1.454-30.317 4.849-9.164 3.336-16.519 14.053-26.344 15.773-9.554 1.674-20.114-5.858-30.148-5.858-10.036 0-20.598 7.531-30.155 5.857-9.825-1.721-17.179-12.438-26.344-15.775-9.327-3.396-21.841.054-30.321-4.852-6.186-3.58-9.606-11.131-13.862-17.439l-3.846 1.223c-4.665 1.483-5.757 7.544-1.943 10.612.109.088.217.177.325.267 7.527 6.323 10.768 18.909 19.327 23.862 8.48 4.906 20.994 1.456 30.321 4.852 9.164 3.337 16.518 14.054 26.344 15.775 9.556 1.674 20.119-5.857 30.155-5.857 10.034 0 20.594 7.532 30.148 5.858 9.825-1.721 17.179-12.437 26.344-15.773 9.326-3.395 21.838.057 30.317-4.849 4.025-2.329 6.881-6.337 9.558-10.589 2.736-4.347 1.009-10.111-3.667-12.234z" fill="#fff0af"/></g></svg>