<svg id="Capa_1" enable-background="new 0 0 512 512" height="512" viewBox="0 0 512 512" width="512" xmlns="http://www.w3.org/2000/svg"><g><path d="m419.91 172.403h-24.775v-57.806h32.49z" fill="#e2a975"/><circle cx="407.831" cy="106.562" fill="#ecbd83" r="27.013"/><path d="m418.08 77.717c-6.4-2.446-12.239-3.001-17.814-1.716-3.158.73-5.731 3.184-6.574 6.415-.878 3.365.161 6.889 2.72 9.208l10.217 9.23c4.474 4.049 8.282 8.741 11.314 13.947l6.597 11.323c.738 1.267 2.047 2.093 3.513 2.218.655.053 1.307-.033 1.91-.251.736-.266 1.403-.722 1.919-1.339 6.617-7.898 9.015-18.47 6.402-28.287-2.442-9.215-9.813-16.78-20.204-20.748z" fill="#5d5360"/><path d="m476.761 99.031-3.733-86.922c-.291-6.77-5.865-12.109-12.642-12.109-6.988 0-12.653 5.665-12.653 12.653v85.755l-5.444 6.427 9.627 19.331 12.536 2.832 4.25-4.895c5.538-6.377 8.421-14.634 8.059-23.072z" fill="#ecbd83"/><path d="m341.755 191.312-35.398-31.041c-5.094-4.467-12.881-3.802-17.143 1.464-.094.116-.235.325-.414.609-3.94 6.249-2.816 14.438 2.445 19.624l38.447 37.89c3.246 3.453 7.646 5.211 12.064 5.204l4.129-11.383z" fill="#ecbd83"/><path d="m352.336 221.203 24.946-19.912 34.116 54.967 8.008-9.87 3.553-7.162v-58.261c0-3.979 1.436-7.824 4.044-10.828l37.449-43.138-22.163-22.164-37.461 44.225c-4.066 4.799-9.97 7.976-16.258 7.85-9.479-.191-18.57 3.699-24.974 10.661l-21.842 23.741v33.688c3.746-.007 7.503-1.217 10.582-3.797z" fill="#f5ebcd"/><path d="m414.701 250.839-13.804-46.36c-2.24-7.522-10.994-10.886-17.694-6.799l-5.922 3.611 24.148 58.98c6.764-4.73 13.272-9.432 13.272-9.432z" fill="#f4dbb3"/><path d="m471.82 338.581-34.409-.689 28.452 141.076 12.804 9.699 13.802-9.699z" fill="#ecbd83"/><path d="m387.346 326.194-72.568 152.774c-1.718 3.617.92 7.79 4.924 7.79l22.338-7.79 80.402-146.065z" fill="#e2a975"/><path d="m314.779 478.968-11.99 25.241c-1.718 3.617.919 7.791 4.924 7.791h6.384c6.021 0 11.565-3.277 14.469-8.552l13.475-24.48z" fill="#f6d190"/><g fill="#ffe09f"><path d="m470.49 501.911c1.173 5.866 6.324 10.089 12.306 10.089 7.643 0 13.511-6.773 12.422-14.338l-2.75-18.695h-26.606z"/><path d="m297.481 171.813c-3.927-3.927-9.996-4.74-14.819-1.984l-22.456 12.832 1.918 15.09 15.466 7.071 18.744-14.578c5.848-4.549 6.386-13.193 1.147-18.431z"/><path d="m30.033 243.899-20.899 8.957c-4.45 1.907-7.336 6.283-7.336 11.125 0 8.262 8.094 14.095 15.931 11.483l22.822-7.607 2.698-14.419z"/></g><path d="m106 281.25c-4.41 11.467-10.4 31.693-8.788 44.05l21.121 161.926 3.551 5.849 12.042-5.849v-152.949l82.581 152.949 12.732 5.849 12.042-5.849-82.581-198.194z" fill="#6f6571"/><path d="m241.282 487.226h-24.774v13.935l35.646 7.395c3.859 0 5.792-4.666 3.063-7.395z" fill="#c38c66"/><path d="m233.024 198.194-24.881-24.881c-10.398-10.398-24.877-15.64-39.522-14.309l-28.104 2.555-23.292 2.117c-10.288.935-19.546 6.63-25.021 15.39l-32.6 52.16-29.571 12.673 10.518 23.958 25.379-8.46c6.623-2.208 12.376-6.457 16.434-12.138l35.047-49.066 12.256 39.871-22 38.102 2.833 12.866h48.201c33.032-41.29 33.032-82.581 33.032-82.581l26.03 20.824c8.949 7.159 21.64 7.246 30.686.21l29.141-22.665-17.384-22.16z" fill="#aedb81"/><path d="m158.437 187.787c-10.116-3.372-16.94-12.839-16.94-23.503v-31.692h24.774v49.548c0 4.063-3.98 6.931-7.834 5.647z" fill="#f6d190"/><circle cx="152.508" cy="123.871" fill="#ffe09f" r="27.019"/><path d="m176.452 103.563c-8.804-10.382-23.132-13.982-35.672-8.955-8.99 3.615-15.443 11.937-18.284 22.674-1.556 5.881-.132 12.355 1.934 17.244 1.64 3.882 6.922 4.387 9.295.904 5.164-7.578 15.516-19.228 32.053-22.876l8.149-1.673c1.55-.303 2.834-1.441 3.352-2.941.517-1.5.2-3.168-.827-4.377z" fill="#ff8b5a"/><path d="m216.508 503.742c0 4.56 3.697 8.258 8.258 8.258h30.832c3.859 0 5.792-4.666 3.064-7.395l-3.444-3.444h-38.71z" fill="#9f6e50"/><path d="m117.411 198.194 7.2 39.871-24.359 35.859c-3.222 4.743-5.788 9.832-7.818 15.108l6.691 2.718 11.375-2.718c1.049-2.059 2.182-4.015 3.413-5.827l24.36-35.859c2.429-3.575 3.359-7.961 2.591-12.214l-4.265-23.62c-1.621-8.977-10.212-14.939-19.188-13.318z" fill="#95cc81"/><path d="m110.5 289.032h-18.066-.001c-4.41 11.467-6.013 23.91-4.401 36.268l21.121 161.926 10.445 4.798 6.068-4.464c.017-.826-.028-1.652-.135-2.471l-21.121-161.926c-1.227-9.409-.038-19.161 3.44-28.202.795-2.069 1.688-4.041 2.65-5.929z" fill="#5d5360"/><path d="m509.482 312.354-18.191-40.93c-6.766-15.224-19.034-27.329-34.346-33.891l-33.986-14.565-12.078 15.098-28.944 99.568c6.715.312 15.486-3.508 21.421-1.337 7.357 2.692 12.455 16.139 20.547 17.107 8.091.969 16.218-10.894 24.002-11.773 8.036-.907 18.27 8.821 25.744 6.136 7.597-2.729 9.986-17.024 16.753-21.386 3.075-1.982 7.491-2.222 11.934-2.428 5.796-.268 9.501-6.296 7.144-11.599z" fill="#aedb81"/><path d="m410.881 238.066-48.377 60.471c-2.768 3.46-2.217 8.539 1.276 11.265.793.619 1.458 1.194 1.88 1.638 5.546 5.837 4.492 20.293 11.23 24.738 1.751 1.155 4.078 1.509 5.047 1.446l29.46-81.368c1.676-4.826 1.819-10.051.41-14.961z" fill="#95cc81"/><path d="m109.153 487.226v13.935l35.646 7.395c3.859 0 5.792-4.666 3.063-7.395l-13.935-13.935z" fill="#c38c66"/><path d="m109.153 503.742c0 4.56 3.697 8.258 8.258 8.258h30.832c3.859 0 5.792-4.666 3.064-7.395l-3.444-3.444h-38.71z" fill="#9f6e50"/></g></svg>