<svg id="Capa_1" enable-background="new 0 0 512 512" height="512" viewBox="0 0 512 512" width="512" xmlns="http://www.w3.org/2000/svg"><g><path d="m321.214 170.753-31.972-119.896 15.698-4.19 28.691 107.583 71.246-77.671 11.984 10.984-79.86 87.059-61.268 251.88 135.446-209.942 16.015-120.112 16.111 2.151-13.079 98.107 60.886-60.886 8.298 14.687-74.065 74.064-152.635 236.585-30.213-32.531 16.91-3.776z" fill="#eceaec"/><path d="m191.241 170.753 31.973-119.896-15.699-4.19-28.69 107.583-71.246-77.671-11.984 10.984 79.86 87.059 61.268 251.88-135.447-209.942-16.015-120.112-16.111 2.151 13.079 98.107-60.886-60.886-8.297 14.687 74.064 74.064 152.635 236.585 16.711-22.299z" fill="#eceaec"/><path d="m272.253 479.492-16.254-8.127-16.254 8.127v-32.508c0-8.977 7.277-16.254 16.254-16.254 8.977 0 16.254 7.277 16.254 16.254z" fill="#ff8086"/><path d="m249.841 463.48c-4.357-1.123-8.77 1.56-9.849 5.913l-8.127 32.508 15.762 3.944 8.127-32.508c1.095-4.357-1.556-8.77-5.913-9.857z" fill="#6f6571"/><path d="m272.007 469.393c-1.087-4.353-5.516-7.028-9.849-5.913-4.357 1.087-7.008 5.5-5.913 9.857l8.127 32.508 15.762-3.944z" fill="#6f6571"/><circle cx="255.999" cy="414.476" fill="#f6d190" r="16.254"/><path d="m459.174 64.153-16.253-11.443c-10.491-6.448-21.339-12.368-32.509-17.726l-16.254-7.301c-10.586-4.44-21.432-8.385-32.507-11.806l-16.256-4.6c-10.651-2.742-21.495-5.006-32.507-6.766l-16.255-2.217c-10.7-1.21-21.543-1.949-32.508-2.193l-16.254-.01c-10.965.243-21.808.978-32.508 2.189l-16.253 2.223c-11.012 1.761-21.855 4.026-32.507 6.769l-16.256 4.602c-11.075 3.422-21.92 7.368-32.506 11.809l-16.255 7.303c-11.175 5.36-22.028 11.284-32.523 17.735l-16.238 11.432c-24.699 20.306-41 48.86-46.562 80.378l18.402-2.412c62.352-53.029 143.056-85.119 231.334-85.119s168.982 32.09 231.335 85.119l18.403 2.423c-5.561-31.518-21.863-60.08-46.563-80.389z" fill="#ff8086"/><path d="m505.737 144.542c-14.691-13.205-30.262-25.127-46.563-35.735v-44.654c-5.075-4.184-10.493-8.021-16.254-11.441v46.116c-10.572-6.131-21.417-11.718-32.508-16.757v-47.087c-5.346-2.565-10.764-4.999-16.254-7.302v47.461c-10.65-4.237-21.488-8.001-32.508-11.235v-48.026c-5.37-1.66-10.779-3.194-16.254-4.604v48.234c-10.701-2.618-21.545-4.762-32.508-6.429v-48.572c-5.382-.861-10.795-1.599-16.254-2.217v48.714c-10.744-1.157-21.588-1.816-32.508-2.049v-48.859c-2.706-.061-5.406-.1-8.127-.1s-5.421.034-8.127.094v48.865c-10.919.233-21.765.892-32.508 2.049v-48.729c-5.459.618-10.872 1.365-16.254 2.226v48.578c-10.962 1.667-21.807 3.81-32.508 6.429v-48.241c-5.475 1.41-10.884 2.949-16.254 4.608v48.03c-11.02 3.234-21.857 6.998-32.508 11.235v-47.465c-5.49 2.303-10.908 4.744-16.254 7.309v47.081c-11.09 5.04-21.936 10.625-32.508 16.756l-.016-46.105c-5.755 3.419-11.168 7.252-16.238 11.432v44.651c-16.301 10.606-31.871 22.525-46.562 35.727l-.043.242c-1.478 8.382 8.403 13.965 14.814 8.366 62.825-54.864 144.993-88.124 234.965-88.124 89.976 0 172.148 33.262 234.973 88.13 6.408 5.596 16.284.016 14.807-8.362z" fill="#e5646e"/><g fill="#5d5360"><circle cx="239.745" cy="503.873" r="8.127"/><circle cx="272.253" cy="503.873" r="8.127"/></g></g></svg>