<svg id="Capa_1" enable-background="new 0 0 512 512" height="512" viewBox="0 0 512 512" width="512" xmlns="http://www.w3.org/2000/svg"><g><g fill="#6fd6a2"><path d="m391.356 9.716c.886-5.626-3.986-10.498-9.612-9.612-23.197 3.655-45.489 14.344-63.367 32.222-20.639 20.639-31.698 47.163-33.413 74.169 27.007-1.715 53.53-12.774 74.169-33.413 17.879-17.876 28.568-40.168 32.223-63.366z"/><path d="m155.37 165.825c-5.676-1.078-10.77 4.016-9.692 9.692 3.2 16.839 11.267 32.927 24.303 45.963 15.876 15.876 36.279 24.383 57.053 25.702-1.319-20.774-9.826-41.177-25.702-57.053-13.035-13.037-29.122-21.104-45.962-24.304z"/><path d="m316.039 252.685c1.694-6.295-4.015-12.005-10.31-10.31-10.109 2.721-19.662 8.027-27.599 15.964-11.113 11.114-17.068 25.395-17.992 39.937 14.542-.923 28.824-6.878 39.937-17.992 7.937-7.937 13.243-17.49 15.964-27.599z"/><path d="m130.255 41.483c-5.626-.886-10.498 3.986-9.612 9.612 3.655 23.197 14.345 45.489 32.222 63.367 20.639 20.639 47.163 31.698 74.169 33.413-1.715-27.007-12.774-53.53-33.413-74.169-17.876-17.879-40.169-28.568-63.366-32.223z"/></g><path d="m315.642 75.819c-3.233-3.233-8.47-3.233-11.702 0l-35.107 35.107c-10.867 10.866-16.971 25.605-16.971 40.972v9.101l-43.802-43.802c-3.233-3.233-8.47-3.233-11.702 0-3.233 3.233-3.233 8.47 0 11.702l50.657 50.657c3.104 3.104 4.848 7.314 4.848 11.704v69.047l-43.802-43.802c-3.233-3.233-8.47-3.233-11.702 0-3.233 3.233-3.233 8.47 0 11.702l50.657 50.657c3.104 3.104 4.848 7.314 4.848 11.704v55.922h16.551v-194.599c0-10.972 4.358-21.495 12.116-29.253l35.113-35.117c3.231-3.233 3.231-8.47-.002-11.702z" fill="#9ae59c"/><path d="m350.25 379.591-90.112-33.102-56.588 16.551 6.973 125.511c.731 13.156 11.612 23.45 24.789 23.45h84.097c13.176 0 24.058-10.293 24.789-23.45z" fill="#e29a6c"/><path d="m169.106 363.04 6.973 125.511c.731 13.156 11.612 23.45 24.789 23.45h34.443v-99.307c0-18.282 14.82-33.102 33.102-33.102h81.837l.919-16.551-91.031-16.551z" fill="#d48c64"/><path d="m365.278 130.91c.437-3.101-2.319-5.857-5.42-5.42-16.117 2.273-31.656 9.552-44.053 21.949-12.396 12.396-19.675 27.936-21.949 44.053-.437 3.101 2.319 5.857 5.42 5.42 16.117-2.273 31.656-9.552 44.053-21.949 12.396-12.396 19.675-27.936 21.949-44.053z" fill="#9ae59c"/><path d="m230.121 3.51c-2.833-2.074-6.828-.739-7.843 2.622-3.581 11.849-3.689 24.865.535 37.499s12.139 22.967 22.126 30.28c2.833 2.074 6.828.739 7.843-2.622 3.581-11.849 3.689-24.865-.535-37.499s-12.139-22.968-22.126-30.28z" fill="#9ae59c"/><path d="m359.445 329.937h-157.236c-4.571 0-8.276 3.705-8.276 8.276v8.276c0 4.57 3.705 8.276 8.276 8.276h157.236c4.57 0 8.276-3.705 8.276-8.276v-8.276c-.001-4.571-3.706-8.276-8.276-8.276z" fill="#f4aa73"/><path d="m210.484 346.488c-4.571 0-8.276-3.705-8.276-8.276v-8.276h-41.378c-4.571 0-8.276 3.705-8.276 8.276v16.551c0 4.57 3.705 8.276 8.276 8.276h198.614c4.57 0 8.276-3.705 8.276-8.276v-8.276h-157.236z" fill="#e29a6c"/></g></svg>