<?xml version="1.0" encoding="iso-8859-1"?>
<!-- Generator: Adobe Illustrator 19.0.0, SVG Export Plug-In . SVG Version: 6.00 Build 0)  -->
<svg version="1.1" id="Layer_1" xmlns="http://www.w3.org/2000/svg" xmlns:xlink="http://www.w3.org/1999/xlink" x="0px" y="0px"
	 viewBox="0 0 512 512" style="enable-background:new 0 0 512 512;" xml:space="preserve">
<path style="fill:#8DC9BD;" d="M512,289.34c0-137.653-108.651-249.905-244.87-255.735V12.872C267.13,5.763,262.147,0,256,0
	s-11.13,5.763-11.13,12.872v332.103c-19.753,26.286-44.058,48.956-71.739,66.851H0l0,0C0,467.151,44.849,512,100.174,512h311.652
	C467.151,512,512,467.151,512,411.826l0,0h-31.177C500.694,375.444,512,333.717,512,289.34z M267.13,45.773
	c21.295,39.341,33.391,84.388,33.391,132.263c0,47.873-12.094,92.916-33.391,132.246V45.773z"/>
<path style="fill:#BC7A19;" d="M244.87,344.976V12.872C244.87,5.763,249.853,0,256,0s11.13,5.763,11.13,12.872v20.733v12.168v264.51
	C260.559,322.42,253.109,334.011,244.87,344.976z"/>
<path style="fill:#A5DDD3;" d="M512,289.34c0,48.973-13.769,94.72-37.625,133.616h-68.26
	c23.856-38.896,37.625-84.644,37.625-133.616c0-113.633-74.044-209.946-176.512-243.383c-0.033-0.061-0.066-0.124-0.099-0.186
	V33.605C403.349,39.435,512,151.687,512,289.34z"/>
<path style="fill:#FFFFFF;" d="M449.556,319.095c-0.363,1.508-0.742,3.011-1.139,4.508c-1.321,4.988-5.826,8.284-10.753,8.284
	c-0.943,0-1.901-0.12-2.856-0.373c-5.943-1.574-9.484-7.667-7.91-13.609c0.354-1.336,0.692-2.676,1.016-4.02
	c1.439-5.977,7.447-9.656,13.427-8.215C447.317,307.108,450.995,313.118,449.556,319.095z M394.51,125.572
	c-4.414-4.277-11.461-4.167-15.738,0.247c-4.279,4.414-4.167,11.461,0.247,15.738c35.512,34.412,55.068,78.062,55.068,122.909
	c0,6.147,4.983,11.13,11.13,11.13c6.147,0,11.13-4.983,11.13-11.13C456.348,213.542,434.387,164.214,394.51,125.572z"/>
<path style="fill:#C92B00;" d="M0,411.826h512l0,0C512,467.151,467.151,512,411.826,512H100.174C44.849,512,0,467.151,0,411.826
	L0,411.826z"/>
<path style="fill:#FF4800;" d="M11.13,411.826h398.222l0,0c0,36.883-29.9,66.783-66.783,66.783H77.913
	C41.03,478.609,11.13,448.709,11.13,411.826L11.13,411.826z"/>
<g>
</g>
<g>
</g>
<g>
</g>
<g>
</g>
<g>
</g>
<g>
</g>
<g>
</g>
<g>
</g>
<g>
</g>
<g>
</g>
<g>
</g>
<g>
</g>
<g>
</g>
<g>
</g>
<g>
</g>
</svg>
