<?xml version="1.0" encoding="iso-8859-1"?>
<!-- Generator: Adobe Illustrator 21.0.0, SVG Export Plug-In . SVG Version: 6.00 Build 0)  -->
<svg xmlns="http://www.w3.org/2000/svg" xmlns:xlink="http://www.w3.org/1999/xlink" version="1.1" id="Capa_1" x="0px" y="0px" viewBox="0 0 510.488 510.488" style="enable-background:new 0 0 510.488 510.488;" xml:space="preserve" width="512" height="512">
<g>
	<path style="fill:#E76753;" d="M258.059,120.3c-77.614,0-140.758,64.119-140.758,142.931v130.841c0,4.142,3.307,7.5,7.386,7.5   h266.744c4.079,0,7.386-3.358,7.386-7.5V263.231C398.817,184.418,335.674,120.3,258.059,120.3z"/>
	<path style="fill:#FEFEFE;" d="M261.233,295.947c-15.399,0-27.927,12.528-27.927,27.927s12.528,27.927,27.927,27.927   c15.399,0,27.927-12.528,27.927-27.927S276.632,295.947,261.233,295.947z"/>
	<path style="fill:#FEFEFE;" d="M260.233,178.066c-15.302,0-27.751,12.449-27.751,27.751v70.329c0,3.974,3.222,7.196,7.196,7.196   h41.11c3.974,0,7.196-3.222,7.196-7.196v-70.329C287.984,190.515,275.535,178.066,260.233,178.066z"/>
	<path style="fill:#E15039;" d="M260.233,120.3c-5.065,0-10.069,0.269-15,0.786c71.789,7.521,127.931,68.398,127.931,142.145   v130.841c0,4.142-3.358,7.5-7.5,7.5h30c4.142,0,7.5-3.358,7.5-7.5V263.231C403.164,184.418,339.045,120.3,260.233,120.3z"/>
	<path style="fill:#EDEDEF;" d="M261.233,295.947c-5.518,0-10.663,1.615-15,4.389c7.765,4.966,12.927,13.658,12.927,23.538   s-5.162,18.573-12.927,23.538c4.337,2.773,9.482,4.389,15,4.389c15.399,0,27.927-12.528,27.927-27.927   S276.632,295.947,261.233,295.947z"/>
	<path style="fill:#EDEDEF;" d="M260.233,178.066c-5.524,0-10.671,1.629-15,4.422c7.663,4.944,12.751,13.551,12.751,23.329v70.329   c0,3.974-3.222,7.196-7.196,7.196h30c3.974,0,7.196-3.222,7.196-7.196v-70.329C287.984,190.515,275.535,178.066,260.233,178.066z"/>
	<path style="fill:#D5D3D2;" d="M259.67,90.832c-4.142,0-7.5-3.358-7.5-7.5V28.065c0-4.142,3.358-7.5,7.5-7.5s7.5,3.358,7.5,7.5   v55.267C267.17,87.474,263.813,90.832,259.67,90.832z"/>
	<path style="fill:#D5D3D2;" d="M389.473,138.259c-1.919,0-3.839-0.732-5.303-2.197c-2.929-2.929-2.929-7.677,0-10.606l39.08-39.08   c2.929-2.929,7.678-2.929,10.606,0c2.929,2.929,2.929,7.677,0,10.606l-39.08,39.08   C393.312,137.527,391.392,138.259,389.473,138.259z"/>
	<path style="fill:#D5D3D2;" d="M502.988,263.579H447.72c-4.142,0-7.5-3.358-7.5-7.5s3.358-7.5,7.5-7.5h55.268   c4.142,0,7.5,3.358,7.5,7.5S507.13,263.579,502.988,263.579z"/>
	<path style="fill:#D5D3D2;" d="M121.015,138.259c-1.919,0-3.839-0.732-5.303-2.197l-39.08-39.08c-2.929-2.929-2.929-7.678,0-10.606   c2.929-2.929,7.678-2.929,10.606,0l39.08,39.08c2.929,2.929,2.929,7.677,0,10.606C124.854,137.527,122.934,138.259,121.015,138.259   z"/>
	<path style="fill:#D5D3D2;" d="M62.767,263.579H7.5c-4.142,0-7.5-3.358-7.5-7.5s3.358-7.5,7.5-7.5h55.267   c4.142,0,7.5,3.358,7.5,7.5S66.909,263.579,62.767,263.579z"/>
	<path style="fill:#D5D3D2;" d="M397.697,393.77H117.036l-12.308,87.59c-0.302,2.153,0.327,4.333,1.725,5.976   c1.398,1.643,3.427,2.587,5.562,2.587h290.702c2.135,0,4.164-0.944,5.562-2.587c1.399-1.643,2.028-3.823,1.725-5.976   L397.697,393.77z"/>
	<path style="fill:#BEBEBE;" d="M415.736,481.36l-12.539-87.59h-30l12.539,87.59c0.308,2.153-0.333,4.333-1.758,5.976   c-1.424,1.643-3.492,2.587-5.667,2.587h30c2.175,0,4.242-0.944,5.667-2.587C415.403,485.693,416.044,483.513,415.736,481.36z"/>
	<path style="fill:#BEBEBE;" d="M220.994,445.389h-82.464c-4.142,0-7.5-3.358-7.5-7.5s3.358-7.5,7.5-7.5h82.464   c4.142,0,7.5,3.358,7.5,7.5S225.136,445.389,220.994,445.389z"/>
	<path style="fill:#BEBEBE;" d="M379.25,445.389h-78.059c-4.142,0-7.5-3.358-7.5-7.5s3.358-7.5,7.5-7.5h78.059   c4.142,0,7.5,3.358,7.5,7.5S383.393,445.389,379.25,445.389z"/>
</g>















</svg>
