<svg id="Capa_1" enable-background="new 0 0 512 512" height="512" viewBox="0 0 512 512" width="512" xmlns="http://www.w3.org/2000/svg"><g><g><path d="m203.461 512c-18.207 0-32.966-14.759-32.966-32.966v-446.069c0-18.206 14.759-32.965 32.966-32.965 18.206 0 32.966 14.759 32.966 32.966v446.069c0 18.206-14.76 32.965-32.966 32.965z" fill="#ff4b22"/><path d="m236.427 32.966c0-18.207-14.76-32.966-32.966-32.966-5.585 0-10.843 1.394-15.453 3.845 10.417 5.539 17.513 16.499 17.513 29.12v446.068c0 12.621-7.096 23.581-17.513 29.121 4.61 2.451 9.868 3.845 15.453 3.845 18.206 0 32.966-14.759 32.966-32.966z" fill="#ef4722"/><path d="m170.495 68.533h65.932v79.659h-65.932z" fill="#ffd740"/><path d="m205.521 68.533h30.905v79.659h-30.905z" fill="#ffc400"/><path d="m170.495 389.023h65.932v79.659h-65.932z" fill="#4dd0e1"/><path d="m205.521 389.023h30.905v79.659h-30.905z" fill="#26c6da"/><path d="m203.696 329.388h-.471c-18.002 0-32.73-14.729-32.73-32.73v-56.101c0-18.002 14.729-32.73 32.73-32.73h.471c18.002 0 32.73 14.729 32.73 32.73v56.101c.001 18.002-14.728 32.73-32.73 32.73z" fill="#5788a1"/><circle cx="203.461" cy="296.423" fill="#4a758a" r="32.966"/><path d="m238.401 275.532h-69.88c-1.754 0-3.177-1.422-3.177-3.177v-24.552c0-1.754 1.422-3.177 3.177-3.177h69.88c1.754 0 3.177 1.422 3.177 3.177v24.552c-.001 1.755-1.423 3.177-3.177 3.177z" fill="#5c91ab"/><path d="m238.401 244.627h-30.905c1.755 0 3.177 1.422 3.177 3.177v24.552c0 1.755-1.422 3.177-3.177 3.177h30.905c1.755 0 3.177-1.422 3.177-3.177v-24.552c-.001-1.755-1.423-3.177-3.177-3.177z" fill="#5788a1"/><path d="m308.539 512c-18.207 0-32.966-14.759-32.966-32.966v-446.068c0-18.207 14.76-32.966 32.966-32.966 18.206 0 32.966 14.759 32.966 32.966v446.069c0 18.206-14.759 32.965-32.966 32.965z" fill="#ff4b22"/><path d="m341.505 32.966c0-18.207-14.759-32.966-32.966-32.966-5.585 0-10.843 1.394-15.453 3.845 10.417 5.539 17.513 16.499 17.513 29.12v446.068c0 12.621-7.096 23.581-17.513 29.121 4.61 2.451 9.868 3.845 15.453 3.845 18.206 0 32.966-14.759 32.966-32.966z" fill="#ef4722"/><path d="m275.573 68.533h65.932v79.659h-65.932z" fill="#ffd740"/><path d="m310.6 68.533h30.905v79.659h-30.905z" fill="#ffc400"/><path d="m275.573 389.023h65.932v79.659h-65.932z" fill="#4dd0e1"/><path d="m310.6 389.023h30.905v79.659h-30.905z" fill="#26c6da"/><path d="m308.775 329.388h-.471c-18.002 0-32.73-14.729-32.73-32.73v-56.101c0-18.002 14.729-32.73 32.73-32.73h.471c18.002 0 32.73 14.729 32.73 32.73v56.101c0 18.002-14.729 32.73-32.73 32.73z" fill="#5788a1"/><circle cx="308.539" cy="296.423" fill="#4a758a" r="32.966"/><path d="m343.479 275.532h-69.88c-1.754 0-3.177-1.422-3.177-3.177v-24.552c0-1.754 1.422-3.177 3.177-3.177h69.88c1.754 0 3.177 1.422 3.177 3.177v24.552c0 1.755-1.422 3.177-3.177 3.177z" fill="#5c91ab"/><path d="m343.479 244.627h-30.905c1.755 0 3.177 1.422 3.177 3.177v24.552c0 1.755-1.422 3.177-3.177 3.177h30.905c1.755 0 3.177-1.422 3.177-3.177v-24.552c0-1.755-1.422-3.177-3.177-3.177z" fill="#5788a1"/></g><g fill="#5c91ab"><path d="m130.43 89.916h-8.975v-43.043c0-4.143-3.354-7.5-7.493-7.5s-7.493 3.357-7.493 7.5v43.043h-8.974c-4.139 0-7.493 3.357-7.493 7.5s3.354 7.5 7.493 7.5h8.974v360.211c0 4.143 3.354 7.5 7.493 7.5s7.493-3.357 7.493-7.5v-360.211h8.975c4.139 0 7.493-3.357 7.493-7.5s-3.354-7.5-7.493-7.5z"/><path d="m414.507 89.916h-8.974v-43.043c0-4.143-3.354-7.5-7.493-7.5s-7.493 3.357-7.493 7.5v43.043h-8.975c-4.139 0-7.493 3.357-7.493 7.5s3.354 7.5 7.493 7.5h8.975v360.211c0 4.143 3.354 7.5 7.493 7.5s7.493-3.357 7.493-7.5v-360.211h8.974c4.139 0 7.493-3.357 7.493-7.5s-3.354-7.5-7.493-7.5z"/></g></g></svg>