<svg id="Capa_1" enable-background="new 0 0 512 512" height="512" viewBox="0 0 512 512" width="512" xmlns="http://www.w3.org/2000/svg"><g><path d="m282.656 460.088h-52.077l-9.157 8.276v13.357c0 16.723 13.556 30.279 30.28 30.279h8.596c16.723 0 30.28-13.557 30.28-30.279v-13.357z" fill="#6b7ed9"/><path d="m268.096 407.291h-52.712l-8.929 7.756v36.334c0 9.463 7.672 17.135 17.135 17.135h53.312z" fill="#9be8fd"/><path d="m297.083 407.291h-26.755l-10.56 8.144v35.945c0 9.463 7.67 17.134 17.132 17.135h11.51c9.463 0 17.135-7.672 17.135-17.135v-36.334z" fill="#c9f0fe"/><path d="m264.465 415.435c-24.311 0-52.02 0-53.531 0-14.495 0-26.247-11.751-26.247-26.247v-19.824c0-11.54-4.885-22.623-13.65-30.13-28.504-24.415-46.606-60.625-46.731-101.07-.226-72.857 58.843-132.993 131.694-134.006 8.391.117 16.597 1.027 24.553 2.642l16.53 18.334v260.523z" fill="#fbc700"/><g><path d="m280.553 106.8c-47.931 12.403-84.184 66.899-84.027 131.365.048 19.586 3.409 38.172 9.395 54.913h15.502v31.109c3.6 5.402 7.53 10.436 11.753 15.047 6.874 7.507 10.705 18.59 10.705 30.13v19.824c0 14.496 9.216 26.247 20.584 26.247h36.601c14.496 0 26.247-11.751 26.247-26.247v-19.824c0-11.54 4.886-22.623 13.65-30.13 28.504-24.415 46.606-60.625 46.731-101.07.2-64.465-46.025-118.961-107.141-131.364z" fill="#ffe02f"/></g><g><path d="m224.68 204.515c-4.267 0-7.726-3.459-7.726-7.726v-36.521c0-4.267 3.459-7.726 7.726-7.726s7.726 3.459 7.726 7.726v36.521c0 4.266-3.459 7.726-7.726 7.726z" fill="#ff7c42"/></g><g><path d="m256 204.515c-4.267 0-7.726-3.459-7.726-7.726v-36.521c0-4.267 3.459-7.726 7.726-7.726s7.726 3.459 7.726 7.726v36.521c.001 4.266-3.459 7.726-7.726 7.726z" fill="#ff7c42"/></g><g><path d="m287.32 204.515c-4.267 0-7.726-3.459-7.726-7.726v-36.521c0-4.267 3.459-7.726 7.726-7.726s7.726 3.459 7.726 7.726v36.521c0 4.266-3.459 7.726-7.726 7.726z" fill="#ff7c42"/></g><g><path d="m224.68 339.213c-4.267 0-7.726-3.459-7.726-7.726v-33.74c0-4.267 3.459-7.726 7.726-7.726s7.726 3.459 7.726 7.726v33.74c0 4.267-3.459 7.726-7.726 7.726z" fill="#ff7c42"/></g><g><path d="m256 339.213c-4.267 0-7.726-3.459-7.726-7.726v-33.74c0-4.267 3.459-7.726 7.726-7.726s7.726 3.459 7.726 7.726v33.74c.001 4.267-3.459 7.726-7.726 7.726z" fill="#ff7c42"/></g><g><path d="m287.32 339.213c-4.267 0-7.726-3.459-7.726-7.726v-33.74c0-4.267 3.459-7.726 7.726-7.726s7.726 3.459 7.726 7.726v33.74c0 4.267-3.459 7.726-7.726 7.726z" fill="#ff7c42"/></g><g><path d="m205.598 284.924h-35.207c-4.267 0-7.726-3.459-7.726-7.726s3.459-7.726 7.726-7.726h35.207c4.267 0 7.726 3.459 7.726 7.726s-3.459 7.726-7.726 7.726z" fill="#ff7c42"/></g><g><path d="m205.598 253.604h-35.207c-4.267 0-7.726-3.459-7.726-7.726s3.459-7.726 7.726-7.726h35.207c4.267 0 7.726 3.459 7.726 7.726 0 4.266-3.459 7.726-7.726 7.726z" fill="#ff7c42"/></g><g><path d="m205.598 222.284h-35.207c-4.267 0-7.726-3.459-7.726-7.726s3.459-7.726 7.726-7.726h35.207c4.267 0 7.726 3.459 7.726 7.726s-3.459 7.726-7.726 7.726z" fill="#ff7c42"/></g><g><path d="m341.61 284.923h-32.65c-4.267 0-7.726-3.459-7.726-7.726s3.459-7.726 7.726-7.726h32.65c4.267 0 7.726 3.459 7.726 7.726.001 4.267-3.459 7.726-7.726 7.726z" fill="#ff7c42"/></g><g><path d="m341.61 253.604h-32.65c-4.267 0-7.726-3.459-7.726-7.726s3.459-7.726 7.726-7.726h32.65c4.267 0 7.726 3.459 7.726 7.726.001 4.266-3.459 7.726-7.726 7.726z" fill="#ff7c42"/></g><g><path d="m341.61 222.284h-32.65c-4.267 0-7.726-3.459-7.726-7.726s3.459-7.726 7.726-7.726h32.65c4.267 0 7.726 3.459 7.726 7.726.001 4.267-3.459 7.726-7.726 7.726z" fill="#ff7c42"/></g><g><path d="m359.659 119.525c-4.267 0-7.726-3.459-7.726-7.726v-24.48c0-4.267 3.459-7.726 7.726-7.726h56.903v-49.696c0-4.267 3.459-7.726 7.726-7.726s7.726 3.459 7.726 7.726v57.422c0 4.267-3.459 7.726-7.726 7.726h-56.903v16.753c.001 4.268-3.459 7.727-7.726 7.727z" fill="#00d2fc"/></g><g><path d="m152.341 119.525c-4.267 0-7.726-3.459-7.726-7.726v-16.754h-56.904c-4.267 0-7.726-3.459-7.726-7.726v-57.422c0-4.267 3.459-7.726 7.726-7.726s7.726 3.459 7.726 7.726v49.695h56.903c4.267 0 7.726 3.459 7.726 7.726v24.48c.001 4.268-3.458 7.727-7.725 7.727z" fill="#00d2fc"/></g><g><path d="m207.191 87.846c-4.267 0-7.726-3.459-7.726-7.726v-50.223c0-4.267 3.459-7.726 7.726-7.726s7.726 3.459 7.726 7.726v50.223c0 4.267-3.459 7.726-7.726 7.726z" fill="#00d2fc"/></g><g><path d="m304.809 87.846c-4.267 0-7.726-3.459-7.726-7.726v-50.223c0-4.267 3.459-7.726 7.726-7.726s7.726 3.459 7.726 7.726v50.223c.001 4.267-3.459 7.726-7.726 7.726z" fill="#00d2fc"/></g><g><path d="m438.827 167.994h-35.734c-4.267 0-7.726-3.459-7.726-7.726s3.459-7.726 7.726-7.726h32.284l41.144-45.899c2.847-3.178 7.733-3.445 10.91-.596 3.178 2.848 3.445 7.733.596 10.91l-43.447 48.469c-1.466 1.633-3.558 2.568-5.753 2.568z" fill="#00d2fc"/></g><g><path d="m108.907 167.994h-35.734c-2.196 0-4.288-.934-5.753-2.569l-43.447-48.469c-2.849-3.177-2.582-8.062.596-10.91 3.177-2.849 8.062-2.583 10.91.596l41.144 45.899h32.284c4.267 0 7.726 3.459 7.726 7.726.001 4.267-3.459 7.727-7.726 7.727z" fill="#00d2fc"/></g><g><path d="m27.74 286.263c-1.837 0-3.68-.651-5.154-1.973-3.178-2.849-3.445-7.733-.597-10.911l45.431-50.682c1.465-1.635 3.557-2.569 5.753-2.569h23.076c4.267 0 7.726 3.459 7.726 7.726s-3.459 7.726-7.726 7.726h-19.625l-43.127 48.112c-1.527 1.704-3.637 2.571-5.757 2.571z" fill="#00d2fc"/></g><g><path d="m87.711 397.539c-4.267 0-7.726-3.459-7.726-7.726v-89.008c0-4.267 3.459-7.726 7.726-7.726h21.196c4.267 0 7.726 3.459 7.726 7.726s-3.459 7.726-7.726 7.726h-13.47v81.282c.001 4.266-3.458 7.726-7.726 7.726z" fill="#00d2fc"/></g><g><path d="m482.276 284.05c-2.119 0-4.23-.867-5.756-2.569l-41.144-45.899h-19.625c-4.267 0-7.726-3.459-7.726-7.726s3.459-7.726 7.726-7.726h23.076c2.196 0 4.288.934 5.753 2.569l43.447 48.468c2.849 3.177 2.582 8.062-.596 10.91-1.476 1.322-3.319 1.973-5.155 1.973z" fill="#00d2fc"/></g><g><path d="m424.289 397.539c-4.267 0-7.726-3.459-7.726-7.726v-81.283h-13.47c-4.267 0-7.726-3.459-7.726-7.726s3.459-7.726 7.726-7.726h21.196c4.267 0 7.726 3.459 7.726 7.726v89.008c0 4.267-3.459 7.727-7.726 7.727z" fill="#00d2fc"/></g><path d="m299.23 187.264h-88.184c-7.987 0-14.521 6.535-14.521 14.521v88.184c0 7.987 6.535 14.521 14.521 14.521h88.184c7.987 0 14.521-6.535 14.521-14.521v-88.184c0-7.987-6.534-14.521-14.521-14.521z" fill="#6b7ed9"/><circle cx="255.138" cy="245.877" fill="#8896e0" r="26.006"/><g fill="#6b7ed9"><circle cx="490.804" cy="103.938" r="21.196"/><circle cx="424.288" cy="21.196" r="21.196"/><circle cx="21.196" cy="103.938" r="21.196"/><circle cx="87.712" cy="21.196" r="21.196"/><circle cx="207.191" cy="21.196" r="21.196"/><circle cx="304.809" cy="21.196" r="21.196"/><circle cx="21.196" cy="284.185" r="21.196"/><circle cx="87.712" cy="394.003" r="21.196"/><circle cx="490.804" cy="284.185" r="21.196"/><circle cx="424.288" cy="394.003" r="21.196"/></g></g></svg>