<svg xmlns="http://www.w3.org/2000/svg" viewBox="0 0 632 632" preserveAspectRatio="xMidYMid slice">
<!-- Contour lines of the Hochries (Chiemgau Alps), 640–1560m at 40m intervals.
     Derived from Copernicus EU-DEM (25m) via opentopodata.org. -->
<g transform="translate(0 632) scale(1 -1)" fill="none" stroke="#dcdbe0" stroke-opacity="0.55" stroke-linecap="round" stroke-linejoin="round">
<path d="M0 171 L5.4 168 L8 166.4 L16 164.7 L24 162.7 L31 160 L32 159 L38.9 152 L38.9 144 L40 142 L45.2 136 L47.1 128 L48 126.9 L51.2 120 L54.8 112 L56 109.8 L58.7 104 L62.6 96 L64 92.8 L66 88 L66 80 L64 76.5 L61.7 72 L56 65.7 L54.6 64 L48 57.1 L46.6 56 L40 51.1 L35 48 L32 45.6 L27.3 40 L24 33.8 L22 32 L16 27.1 L13.4 24 L13.6 16 L16 10.2 L18.2 8 L24 4.9 L32 1.5 L36.4 0 M53.4 0 L56 0.5 L57.6 0 M325 0 L328 4.1 L330.4 8 L334.3 16 L333.3 24 L329.6 32 L328 36.6 L327 40 L326.9 48 L327.8 56 L327.7 64 L328 69.4 L328.3 72 L330.7 80 L335.5 88 L334.7 96 L333.6 104 L334.5 112 L336 119.8 L336 120 L338.2 128 L340.4 136 L344 141.6 L346 144 L350.1 152 L351.6 160 L352 162 L354.9 168 L360 175.1 L360.8 176 L365.4 184 L366.5 192 L363.7 200 L367.8 208 L368 208.3 L372.9 216 L376 221.8 L377.6 224 L383.9 232 L384 232.1 L391.2 240 L392 240.9 L398.9 248 L400 250.1 L405.7 256 L408 257.8 L416 260.1 L423.2 264 L422.7 272 L424 276.1 L425.5 280 L432 286.2 L433.4 288 L437.4 296 L440 302.1 L441.7 304 L444.1 312 L445.2 320 L446.6 328 L448 330.2 L452.5 336 L455.8 344 L456 345.2 L458.9 352 L461.9 360 L464 364.8 L466 368 L471 376 L472 377 L476.7 384 L480 389.6 L481.2 392 L485.1 400 L488 405.2 L490.1 408 L490.2 416 L488.3 424 L489.5 432 L492.3 440 L496 442.5 L500.8 448 L504 450 L510.3 456 L512 459.2 L514.4 464 L516.2 472 L519.5 480 L520 481 L524.1 488 L528 492.8 L530.9 496 L536 498.9 L543.2 504 L544 504.8 L549.6 512 L550.4 520 L552 523.2 L560 524.7 L562.5 528 L568 533.4 L569.9 536 L572.5 544 L575.6 552 L576 552.7 L579.8 560 L583.8 568 L584 568.2 L592 573.3 L597.3 576 L600 579 L603.5 584 L604.4 592 L605.4 600 L606.4 608 L608 615.7 L608.1 616 L614.2 624 L616 625.1 L624 629.2 L626.9 632 M387.1 0 L391.1 8 L389.9 16 L387.1 24 L384 32 L384 32.1 L381.5 40 L380.1 48 L378 56 L376.1 64 L376 64.4 L372.3 72 L369.6 80 L369 88 L372.1 96 L376 103.9 L376 104 L377.4 112 L378.3 120 L378.6 128 L379.5 136 L381.5 144 L382.7 152 L381.1 160 L378.8 168 L380.1 176 L384 179.5 L392 180.8 L400 181.2 L403.4 184 L408 187.7 L411.9 192 L416 198.9 L416.4 200 L419.8 208 L424 213.3 L426.4 216 L431.2 224 L432 227 L433.3 232 L436.9 240 L440 241.5 L448 245.3 L451.8 248 L456 252 L459 256 L464 261.6 L465.1 264 L465.9 272 L467.6 280 L472 287.5 L472.3 288 L478.3 296 L480 298.6 L481.5 304 L487.6 312 L488 312.3 L492.1 320 L496 326.9 L496.6 328 L500.2 336 L504 341.8 L505.1 344 L510.1 352 L512 354.7 L514.5 360 L518.4 368 L520 371 L521.6 376 L524 384 L526.9 392 L528 395 L529 400 L530.1 408 L532.6 416 L536 421.7 L537 424 L539.8 432 L544 439.8 L544.1 440 L550.6 448 L552 449.3 L558 456 L560 458 L568 463 L569.7 464 L576 468.8 L581.1 472 L584 475.9 L589.2 480 L592 484.8 L594.9 488 L600 492.7 L603.2 496 L608 499.2 L614.3 504 L616 505.1 L620.6 512 L624 518.1 L625.1 520 L625.8 528 L624.5 536 L626.1 544 L628.2 552 L631.1 560 L632 561.1 M0 182.7 L5.1 184 L8 185.2 L16 185.9 L24 187.8 L32 190.5 L33.9 192 L39.1 200 L40 201.9 L42.1 208 L45 216 L48 221.8 L51.2 224 L55.9 232 L56 232.2 L64 234.1 L72 238.2 L74.2 240 L80 243.3 L85.3 248 L88 250.3 L95.3 256 L96 256.6 L100.4 256 L96.4 248 L96 247.5 L89.8 240 L88 237.6 L83 232 L80 226.8 L78.4 224 L77.4 216 L77.6 208 L78.1 200 L80 194.3 L81.3 192 L88 187.8 L96 185.2 L101.1 184 L104 182.9 L112 181.7 L120 179.9 L128 176.5 L129.8 176 L136 171.2 L139.4 168 L136 165 L128 163.5 L120 160.5 L112 160.7 L104.7 160 L104 160 L96 158.4 L88 154.5 L85.4 152 L80.4 144 L80 143.2 L74.8 136 L72 130.9 L69.9 128 L66 120 L67.1 112 L69.5 104 L72 97.9 L72.8 96 L76.8 88 L80 81.1 L80.5 80 L84.3 72 L85.5 64 L80 59.7 L72 57.1 L67.7 56 L64 55.1 L56 51.3 L52.7 48 L48 43.4 L43.5 40 L40 35.9 L37.7 32 L37.2 24 L40 19.4 L45.3 16 L48 15 L56 14.9 L64 15.5 L72 15.5 L80 12.3 L85.4 8 L88 6.1 L96 5.6 L104 4.2 L111.9 0 M301.8 0 L302.5 8 L303.5 16 L304 17.2 L307 24 L308.4 32 L304 39.5 L303.7 40 L301.5 48 L304 54.4 L304.8 56 L310.1 64 L309.2 72 L305.7 80 L305 88 L305.1 96 L306.8 104 L308.5 112 L311.3 120 L312 122 L314.7 128 L316.5 136 L316.9 144 L315.2 152 L313.1 160 L313.7 168 L318.3 176 L320 180.1 L321.6 184 L323.1 192 L320 199.4 L319.7 200 L313.3 208 L312 209.6 L308.3 216 L304 223.3 L303 224 L303.6 232 L304 232 L304.7 232 L312 230.8 L320 225.1 L323.1 224 L328 222.8 L330.3 224 L336 226.8 L343.1 232 L344 232.6 L352 239.2 L352.9 240 L358.8 248 L360 249.8 L364.9 256 L368 259.5 L376 263.9 L376.4 264 L384 265.8 L392 271.3 L393.2 272 L400 275 L408 279 L409 280 L415.4 288 L416 288.6 L424 294.9 L425.1 296 L429.7 304 L430 312 L430.3 320 L432 325.5 L432.9 328 L436.9 336 L440 341.7 L441.5 344 L444.4 352 L447.3 360 L448 362.5 L450.3 368 L453.1 376 L456 381.1 L458.4 384 L464 390.1 L465.7 392 L469.7 400 L470.4 408 L470.8 416 L472 420.4 L472.9 424 L474.7 432 L474.5 440 L472 443.9 L465.8 448 L464 449.5 L456.3 456 L462.4 464 L464 465.1 L472 466 L475.9 464 L480 461.5 L488 458.4 L496 460.6 L500.2 464 L501.5 472 L501.4 480 L504 486.7 L504.4 488 L506.9 496 L510.4 504 L512 505.4 L520 508.4 L528 511.7 L528.8 512 L536 517.6 L537.2 520 L536.2 528 L536 528.3 L532.6 536 L528 542.1 L526.7 544 L521.5 552 L520 554.1 L516.4 560 L520 563.9 L528 565.4 L534.3 560 L536 558.2 L541.4 552 L544 549.4 L552 545.3 L560 550.7 L560.6 552 L566.2 560 L568 564.3 L569.2 568 L573.7 576 L576 578.3 L584 582.8 L585.5 584 L590.9 592 L592 595.5 L593.3 600 L594.3 608 L594.2 616 L594.1 624 L599.4 632 M410.1 0 L411.4 8 L409.6 16 L408 21.3 L406.9 24 L403.3 32 L400.5 40 L400.1 48 L401.8 56 L403.5 64 L400 70.5 L392 70.4 L389.7 72 L385.3 80 L387.4 88 L388.5 96 L389.5 104 L391.8 112 L392 112.8 L395.4 120 L400 127.6 L400.2 128 L405 136 L408 141 L409.1 144 L408.5 152 L408 153.2 L403.6 160 L406 168 L408 169.6 L414 176 L416 177.5 L424 182 L426.1 184 L432 190.3 L433.9 192 L437.7 200 L440 205.9 L441.5 208 L448 215.3 L448.4 216 L456 222.5 L457.4 224 L464 229.3 L466.5 232 L472 237.5 L476.2 240 L480 245 L482.4 248 L481 256 L480 263.9 L480 264 L480 264 L484.1 272 L488 275 L494.1 280 L492.9 288 L492.4 296 L494.3 304 L496 309.4 L496.8 312 L501.8 320 L504 323.3 L508.9 328 L512 333.1 L513.6 336 L516.2 344 L520 351.8 L520.1 352 L525.4 360 L528 365.1 L529.5 368 L532.3 376 L534.7 384 L536 388.3 L537.3 392 L540 400 L541.1 408 L542.9 416 L544 419.1 L545.7 424 L548.8 432 L552 437.6 L553.8 440 L560 446 L562.3 448 L568 453.1 L571.4 456 L576 459 L584 463.4 L587.2 464 L592 465.4 L600 466.5 L608 464.1 L615.4 472 L616 477.1 L616.3 480 L617.8 488 L622.7 496 L624 497.6 L628.6 504 L632 508.6 M534.7 0 L536 1.5 L537 0 M102.9 264 L104 258.3 L108.6 264 L104 265.9 L102.9 264 M110.2 272 L112 267.5 L113.3 272 L112 274.5 L110.2 272 M0 188.8 L6.7 192 L8 192.7 L16 194.4 L24 197.3 L27.5 200 L32 203.7 L34.9 208 L38 216 L40 221.7 L41 224 L44.5 232 L43.7 240 L40 246.3 L39 248 L40 253.1 L48 251 L51.6 248 L56 245.2 L64 241.9 L72 244.5 L77 248 L80 250.5 L86.5 256 L88 257.4 L95.2 264 L96 265 L100.8 272 L104 277.3 L106.2 280 L108.7 288 L109.1 296 L110.2 304 L111.6 312 L112 313.3 L116.5 320 L120 325.1 L123.1 328 L128 332.7 L131.8 336 L134 344 L136 347.6 L140.9 352 L144 358.6 L146.8 352 L145.1 344 L144 340 L141.4 336 L136.6 328 L136 326.8 L131.4 320 L130.1 312 L128.1 304 L128 303.4 L126.7 296 L126.7 288 L125 280 L121.8 272 L120 268.2 L117.8 264 L112.5 256 L112 255.3 L105.4 248 L104 246.2 L98.9 240 L96 235.6 L93.4 232 L89 224 L88 219.2 L87.4 216 L88 210 L88.2 208 L91.6 200 L96 196.4 L104 194 L112 193.5 L120 193.5 L128 192.8 L134.7 192 L136 191.8 L144 191 L152 185.7 L153.2 184 L160 176.5 L160.9 176 L168 168.5 L168.3 168 L168 167.6 L162.9 160 L160 154.9 L158.2 152 L152 145.5 L144 144.8 L136 146.1 L128 147 L120 147.4 L112 150.1 L104 151.3 L96 149.1 L90.7 144 L88 137.1 L87.5 136 L87.7 128 L88 126.5 L89.1 120 L88 116.8 L85.9 112 L80.6 104 L80 99.1 L79.8 96 L80 95.4 L83.6 88 L86.1 80 L88 76.5 L91.1 72 L95.1 64 L96 60.8 L97.5 56 L99.5 48 L101.2 40 L98.4 32 L96.9 24 L100.9 16 L104 14.2 L112 10 L115.7 8 L120 5.1 L128 4.3 L136 1.2 L136.9 0 M294 0 L294.3 8 L292.3 16 L291.5 24 L292.7 32 L292.1 40 L290.4 48 L289 56 L288 60.9 L287.4 64 L285.3 72 L288 77 L289.7 80 L295.7 88 L296 89.1 L297.7 96 L299.3 104 L301.5 112 L302.8 120 L302.5 128 L302.9 136 L304 142.6 L304.2 144 L304 144.9 L302.6 152 L302.7 160 L304 165.8 L304.6 168 L307.3 176 L310.3 184 L304.1 192 L304 192.2 L301.8 200 L300.6 208 L296 214.2 L293.7 216 L288 220.5 L285.5 224 L283 232 L280 239.2 L279.7 240 L280 240.2 L288 240.2 L296 241.2 L304 242.2 L312 244 L320 244.4 L328 243.2 L336 243.9 L338.9 248 L344 252 L347.1 256 L352 258.4 L359.6 264 L360 264.2 L368 270.6 L370.1 272 L374.1 280 L376 282.7 L383.8 288 L384 288.1 L392 290.5 L400 292.6 L408 292.8 L410.9 296 L416 297.8 L423.5 304 L424 305.2 L425.3 312 L425.5 320 L427.1 328 L431.7 336 L432 336.5 L435.8 344 L439.9 352 L440 352.1 L443.6 360 L446 368 L448 375.3 L448.2 376 L451.9 384 L456 389.3 L458.5 392 L464 398.8 L464.6 400 L464.6 408 L464 412.9 L463.6 416 L464 417.5 L465.9 424 L468.4 432 L464.8 440 L464 440.6 L456 444.4 L448 446.2 L440.6 448 L440 456 L447.1 464 L448 464.7 L456 469.4 L459.7 472 L464 474.3 L472 473.1 L475.1 472 L480 470 L488 471.3 L488.5 472 L491.2 480 L496 486.4 L496.8 488 L500 496 L502.5 504 L504 506.7 L510.4 512 L512 512.8 L520 515.7 L525.7 520 L528 525.5 L528.8 528 L528 530 L525.8 536 L520.6 544 L520 544.8 L515.3 552 L512 557.1 L507.2 560 L512 565.9 L513.7 568 L520 572.2 L528 574.7 L535.2 568 L536 567.3 L542.4 560 L544 558.3 L552 556 L556.6 560 L560 563.6 L562.4 568 L566.7 576 L568 578.5 L573.7 584 L576 586.2 L583.3 592 L584 593.8 L585.5 600 L585 608 L584 614.2 L583.8 616 L584 617.4 L585.2 624 L588.5 632 M416.5 0 L417.4 8 L416 14.3 L415.6 16 L412.7 24 L410.4 32 L408 39.4 L407.7 40 L406.9 48 L408 51.6 L409.9 56 L413.9 64 L416 69.3 L417.5 72 L416 76.1 L413.8 80 L408 82.8 L400 83 L395 88 L394.6 96 L395.5 104 L399.1 112 L400 113.4 L405.5 120 L408 123.3 L410.4 128 L415.2 136 L416 138 L418.1 144 L418.2 152 L417.5 160 L418.2 168 L423.9 176 L424 176.1 L432 183.4 L432.6 184 L440 190.8 L441.2 192 L448 199.5 L448.5 200 L455 208 L456 209.4 L461 216 L464 219.2 L467.5 224 L472 228.9 L474.7 232 L480 236 L485.8 240 L488 242.4 L493.2 248 L496 253.3 L499.4 256 L504 260.5 L512 262.6 L520 263.4 L521.5 264 L520 266.8 L516.7 272 L513.1 280 L512 281.7 L505.4 288 L504 291.5 L502.6 296 L502.2 304 L502.8 312 L504 314.3 L507.9 320 L512 323.9 L516.3 328 L519.8 336 L520 336.9 L521.6 344 L525.5 352 L528 355.9 L530.8 360 L534.7 368 L536 371.8 L537.6 376 L540 384 L543.1 392 L544 394.6 L546.8 400 L548.8 408 L549.2 416 L550.3 424 L552 429.2 L553 432 L558.7 440 L560 441.2 L568 447.9 L568.1 448 L576 454.8 L577.8 456 L584 459.4 L592 460.8 L600 460.6 L608 457.4 L610.5 456 L616 452 L624 454.4 L624.6 456 L624 461.9 L623.6 464 L622.7 472 L623.7 480 L624 481.3 L625.6 488 L629.9 496 L632 499.1 M525.7 0 L528 5.3 L530.2 8 L534.1 16 L533.1 24 L533.1 32 L536 38.5 L538.4 32 L540.2 24 L540.9 16 L542.1 8 L544 3.8 L545 0 M47.6 24 L48 23.7 L56 23.5 L57.5 24 L64 29.1 L72 31.7 L80 32 L80 32 L86.8 40 L81.9 48 L80 48.6 L72 48.1 L71.5 48 L64 44.7 L56 42.3 L53.6 40 L48 33.3 L47 32 L47.6 24 M149.6 368 L152 362.6 L152.9 368 L153.7 376 L154.6 384 L153 392 L152 392.8 L151.5 392 L150.1 384 L148.7 376 L149.6 368 M0 412.8 L6.6 416 L5 424 L0 425.7 M38.3 632 L36.5 624 L36.9 616 L37.1 608 L40 600 L40.1 600 L48 599 L48.8 600 L56 604.3 L61.8 608 L64 610.5 L67.5 616 L70.3 624 L72 631.9 L72 632 M0 197.4 L7 200 L8 200.5 L16 201.7 L24 206.1 L26.2 208 L31.3 216 L32 217.6 L33.5 224 L35.1 232 L32.1 240 L32 240.3 L26.8 248 L24 252.6 L22.8 256 L20.9 264 L21.4 272 L24 275.3 L28.6 272 L32 270.1 L40 266.9 L45.4 264 L48 262.6 L56 258.1 L58.3 256 L64 251.3 L72 252.2 L77.9 256 L80 258.1 L86.8 264 L88 264.7 L93.7 272 L96 276.9 L97.1 280 L98.5 288 L100.6 296 L104 302.3 L104.5 304 L107.1 312 L109.3 320 L112 326.8 L112.9 328 L119.6 336 L120 336.4 L126.1 344 L128 348.8 L129.5 352 L133.4 360 L135.9 368 L136 368.5 L138.1 376 L141.3 384 L142.8 392 L143.9 400 L144 400.4 L146.9 408 L148.7 416 L151.5 424 L152 426 L154.9 432 L160 438.8 L161.8 440 L168 443 L175.6 448 L176 448.2 L181.9 456 L183.2 464 L184 466 L189.3 464 L187.3 456 L184.7 448 L184 446.8 L179.1 440 L176.1 432 L176 431.8 L172.9 424 L170.5 416 L168 408.5 L167.8 408 L166.2 400 L165.9 392 L165.2 384 L165.3 376 L163 368 L160.4 360 L160 358.9 L157.5 352 L153.4 344 L152 341.3 L149.6 336 L146.8 328 L144.4 320 L144 318.6 L141.1 312 L136.7 304 L136 301.4 L134.4 296 L134.4 288 L132.8 280 L128 272 L128 272 L123.9 264 L120 257.3 L119.1 256 L113.9 248 L112 245.2 L107.9 240 L104 232.6 L103.7 232 L100.2 224 L98.9 216 L103 208 L104 207.3 L112 205.6 L120 205.7 L128 206.1 L136 205.4 L144 204.5 L152 201 L153 200 L160 192.4 L160.2 192 L166.5 184 L168 182.9 L176 181.6 L184 177.6 L186.1 176 L188.6 168 L184 165.8 L176 160.1 L175.9 160 L170.1 152 L168 150.5 L163.9 144 L160 136.4 L159.6 136 L153.7 128 L152 126.4 L146 128 L144 128.7 L136 131.4 L128 130.1 L120 128.1 L112 130 L104 132.1 L102.3 128 L98.3 120 L96 116.5 L93.7 112 L90.6 104 L93.2 96 L96 90.5 L99.7 88 L104 83.7 L106.1 80 L104.8 72 L105.3 64 L106.9 56 L111.2 48 L112 46.5 L116.8 40 L113 32 L112 31 L108.9 24 L112 20.1 L120 18.1 L128 21.2 L136 20.8 L138.8 16 L142.3 8 L144 5.9 L152 3.9 L160 7.6 L161.5 8 L168 11.7 L170.5 8 L176 5 L184 1.8 L190.7 0 M284.6 0 L285.7 8 L283.5 16 L284.2 24 L286 32 L285.1 40 L281.7 48 L280 51.5 L274.8 56 L272 60.7 L266.9 64 L264 67.3 L262 72 L264 75.5 L266.9 80 L272 82.9 L280 84.5 L286.6 88 L288 89 L291.2 96 L292.4 104 L292.8 112 L291.8 120 L291.3 128 L289.4 136 L288.5 144 L291.6 152 L295.3 160 L296 162.2 L297.1 168 L296 172.2 L290.5 176 L288 177.8 L284.2 184 L282.8 192 L282.3 200 L280 205 L278.7 208 L273.2 216 L272 223.4 L271.9 224 L268.6 232 L267 240 L269.5 248 L272 249.7 L280 248.7 L286.8 248 L288 247.9 L290 248 L296 248.3 L304 249.2 L312 251.5 L320 252.8 L328 254.1 L332.2 256 L336 257.5 L344 261.4 L348.6 264 L352 265.7 L360 270.3 L362 272 L366.2 280 L368 283.7 L370.8 288 L376 291 L384 294.5 L386.3 296 L392 299.5 L399.5 304 L400 304.3 L408 305.4 L416 307.2 L419.2 312 L420.3 320 L421.4 328 L424 332.3 L426.3 336 L430.1 344 L432 347.4 L434.4 352 L440 359.9 L440 360 L442.4 368 L443 376 L444.5 384 L448 390.4 L449 392 L456 399.3 L456.5 400 L457.4 408 L456.9 416 L458.7 424 L461 432 L456 437.1 L449 440 L448 440.3 L440 442.2 L432 445.6 L428.5 448 L425.2 456 L432 460.2 L436.4 464 L440 468.1 L445.2 472 L448 473.6 L455.9 480 L456 480.1 L464 482 L472 480.5 L480 481 L487.9 488 L488 488.1 L493.4 496 L496 502 L496.7 504 L499.8 512 L504 515.1 L512 518.5 L515.1 520 L520 524.5 L522.1 528 L520 533.3 L518.9 536 L515 544 L512 548.4 L508.9 552 L504 555.7 L497.5 560 L496 561.7 L488 567.1 L487 568 L488 569.5 L496 571.3 L504 572.3 L512 573.9 L514.7 576 L519.9 584 L520 584.1 L520.6 584 L528 582.9 L535.5 576 L536 575.6 L542.3 568 L544 566.1 L552 565.3 L554.6 568 L560 574.1 L561.1 576 L565.1 584 L568 588.7 L571.5 592 L574.9 600 L575 608 L575.6 616 L576 618.5 L577 624 L578.2 632 M422.9 0 L422.6 8 L421.2 16 L418.3 24 L416 31.5 L415.8 32 L415.2 40 L416 47.4 L416.1 48 L420.8 56 L424 60 L426.6 64 L431.1 72 L428.6 80 L424 84.1 L418.6 88 L416 90 L408 95.6 L407.5 96 L404.8 104 L408 110 L409.3 112 L413.1 120 L416 126.4 L416.6 128 L421.3 136 L424 141.2 L425.6 144 L427.5 152 L427.6 160 L428.3 168 L432 175.2 L432.3 176 L439.4 184 L440 184.6 L447.2 192 L448 192.9 L455.4 200 L456 200.7 L462.1 208 L464 210.3 L468.6 216 L472 220.5 L474.1 224 L480 230.6 L481.4 232 L488 236.8 L491.9 240 L496 244.3 L500.6 248 L504 251.1 L512 254.8 L515.8 256 L520 257.7 L528 260.3 L536 262.2 L538.3 264 L536 266.3 L528 271.8 L527.9 272 L522.5 280 L520 285.8 L518.7 288 L514.4 296 L512.3 304 L513.6 312 L518.8 320 L520 321.2 L523.6 328 L527.1 336 L528 341.2 L528.5 344 L531.7 352 L536 359 L536.6 360 L540.6 368 L543.3 376 L544 378.2 L545.6 384 L549.2 392 L552 396.6 L554 400 L555.9 408 L555.5 416 L556.3 424 L558.5 432 L560 434.1 L565.2 440 L568 442.3 L573.6 448 L576 450.1 L584 455.1 L587.8 456 L592 456.7 L596.9 456 L600 455.3 L608 450.1 L610.7 448 L616 444 L621.2 440 L624 434.4 L629 440 L628.8 448 L630.2 456 L629.4 464 L628.4 472 L629.4 480 L632 486 M518.9 0 L520 1.1 L523.9 8 L526.3 16 L525.7 24 L525.4 32 L527.2 40 L528 41.9 L530.9 48 L535.5 56 L536 56.5 L544 63.8 L544.3 64 L552 67.6 L558.3 72 L560 74.5 L562.8 72 L561 64 L560 62.3 L555.9 56 L552 49.8 L550.8 48 L547.3 40 L548.2 32 L550.9 24 L552 17.8 L552.2 16 L552 13 L551.5 8 L552 4.3 L552.4 0 M567.3 80 L568 79.1 L568.6 80 L568 81.8 L567.3 80 M0 405 L8 406.7 L10.5 408 L16 412.8 L19.7 416 L24 420.4 L27.6 424 L26.6 432 L24 434.3 L16 439.2 L9.2 440 L8 440.1 L7.3 440 L0 438.6 M191.6 472 L192 470.1 L192.2 472 L192 472.4 L191.6 472 M26 632 L24.1 624 L24 623.9 L17.2 616 L16 614.5 L13.1 608 L14 600 L16 594.5 L17.3 592 L16 588.2 L14.7 584 L14.3 576 L16 574.6 L24 575.3 L31.4 568 L32 565.8 L36.2 560 L40 558.4 L42 560 L43.9 568 L46.5 576 L48 577.7 L52.2 584 L56 589.3 L60.6 592 L64 593.7 L72 597.2 L75.7 600 L80 605.3 L82.2 608 L86.5 616 L88 621.5 L88.5 624 L92.9 632 M0 332.2 L8 332.3 L11.6 328 L16 320.8 L16.3 320 L20.1 312 L24 305.8 L25 304 L30.6 296 L32 293.1 L35.7 288 L40 282.4 L42.5 280 L48 277.4 L56 273.5 L64 272.8 L72 274.7 L80 279.5 L80.5 280 L87.4 288 L88 288.7 L92.8 296 L96 301.6 L97.6 304 L102.4 312 L104 318.6 L104.3 320 L106.6 328 L110.5 336 L112 338.2 L117.8 344 L120 347.5 L122.2 352 L125.7 360 L128 366 L128.9 368 L132.7 376 L136 384 L137.6 392 L138 400 L138.9 408 L141.4 416 L143.8 424 L144 424.9 L146.4 432 L150.6 440 L152 442 L157.4 448 L160 450.8 L168 454.9 L169.5 456 L172.7 464 L174.2 472 L176 476.2 L178.6 480 L182.1 488 L182.6 496 L184 498.6 L190.4 504 L192 504.5 L200 505.1 L208 509.7 L210.5 512 L216 515.6 L221.3 520 L224 521.4 L232 526 L235.8 528 L240 530.2 L248 533.4 L252.7 528 L253.1 520 L250.1 512 L248 508.7 L244.9 504 L240.2 496 L240 495.8 L232.4 488 L232 487.7 L224.5 480 L224 479.5 L216 473.8 L213 472 L208 469.7 L200.1 464 L200 463.8 L196.9 456 L193.5 448 L192 446.3 L187.6 440 L184.1 432 L184 431.6 L181.3 424 L178.8 416 L176.5 408 L176 404.4 L175.2 400 L174.1 392 L174.4 384 L176 380.3 L178 376 L176 371.2 L174.4 368 L168.2 360 L168 359.7 L164.6 352 L160.7 344 L160 342.7 L156.1 336 L152.7 328 L152 325.1 L150.7 320 L148.9 312 L144 305.5 L143 304 L140.2 296 L140.1 288 L139 280 L136 273.2 L135.3 272 L130.5 264 L128 258.9 L126.7 256 L123.4 248 L120 241.9 L119 240 L115.9 232 L115.6 224 L120 217.4 L126.5 216 L128 215.9 L136 215.9 L137.2 216 L144 216.4 L152 217.7 L160 217.2 L161.6 216 L167.4 208 L168 206.8 L171.7 200 L176 196.3 L179.7 192 L184 189.3 L192 184.9 L195.6 184 L200 181.5 L203.2 176 L207.5 168 L208 167.1 L214.2 160 L208.6 152 L208 151.4 L200 147.3 L192 146.7 L189.1 144 L184 139.4 L178.1 136 L176 133.7 L169.8 128 L168 126.1 L164.5 120 L160 115.9 L156.9 112 L152.8 104 L152 103.1 L144 97.7 L140.7 96 L136 93.9 L131 88 L131 80 L131.7 72 L128 69 L120 69.9 L116.8 64 L119.8 56 L120 55.8 L128 53.7 L132.7 48 L136 46.4 L142.3 40 L144 38.2 L152 33.5 L160 35.9 L168 39.4 L176 34.9 L177.3 32 L180.6 24 L184 18.5 L188 16 L192 14.8 L200 12.3 L208 9.5 L216 8.3 L224 13.7 L227.3 16 L232 20.5 L240 17.4 L240.7 16 L248 9 L251.5 8 L256 6.5 L259.1 8 L264 11.6 L266.8 16 L272 22.9 L272.9 24 L279.6 32 L273.5 40 L272 40.7 L264 44.6 L256.9 48 L256 48.5 L248 49.9 L242.5 56 L240 62.5 L239.6 64 L240 64.5 L245.3 72 L248 74.9 L251.6 80 L256 87.5 L256.5 88 L261.4 96 L261.7 104 L261.7 112 L260.8 120 L261.5 128 L264 131.5 L267.1 136 L272 143.2 L272.6 144 L277.2 152 L279.3 160 L274.6 168 L272 171.5 L269.4 176 L264 183 L257.5 184 L256 185.3 L254.7 192 L256 193.8 L260.3 200 L260.1 208 L257.6 216 L256 221.2 L255.4 224 L254 232 L253.8 240 L256 244.3 L258.6 248 L264 255.1 L272 255.8 L275.5 256 L280 256.3 L281.7 256 L288 254.9 L296 254.8 L303.5 256 L304 256.1 L312 258.4 L320 260.9 L328 262.8 L332.2 264 L336 264.7 L344 267.1 L352 271.5 L352.8 272 L359.1 280 L360 281.5 L362.6 288 L368 292.6 L375.1 296 L376 296.4 L384 300.5 L390 304 L392 305.2 L400 309.4 L407.8 312 L408 312.1 L414.5 320 L415.9 328 L416 328.1 L420.5 336 L424 343.4 L424.3 344 L428.8 352 L432 356.2 L434.7 360 L438.1 368 L437.2 376 L436.5 384 L439 392 L440 393.8 L444.9 400 L448 405.3 L449.4 408 L450.9 416 L451.5 424 L450.3 432 L448 433.3 L440 436.3 L432 438.8 L429.6 440 L424 443.6 L416 446.9 L412.3 448 L408 455.5 L407.9 456 L408 456.1 L416 459.3 L424 462.3 L426.4 464 L431.8 472 L431 480 L432 480.9 L440 482.4 L448 486.8 L449.4 488 L456 490.5 L464 488.6 L467.8 488 L472 487.3 L474.5 488 L480 489.9 L486 496 L488 500.1 L489.6 504 L490.9 512 L496 518.6 L498.7 520 L504 522 L512 526.3 L513.9 528 L512 535.5 L511.9 536 L509 544 L504 549.7 L502.2 552 L496 556.6 L489.6 560 L488 561.2 L480.7 568 L480 569.3 L477.6 576 L480 579.2 L488 577.5 L496 576.1 L504 577.9 L509.4 584 L512 588.2 L516.5 592 L520 593.2 L523.8 592 L528 590.4 L535 584 L536 583.1 L543.9 576 L544 575.8 L552 576 L552 576 L556.9 584 L560 590.7 L560.4 592 L560 593.9 L558.9 600 L560 603.3 L562.5 608 L567.3 616 L568 624 L568 624 L568 624 L567.5 632 M431.3 0 L430.3 8 L427.9 16 L424 23.9 L424 24 L421.5 32 L421.5 40 L424 46.3 L424.8 48 L430 56 L432 58.8 L435.8 64 L440 71.3 L440.3 72 L441.8 80 L440 84.1 L435.2 88 L432 89.7 L424.8 96 L424 98.7 L421.7 104 L424 111.5 L424.1 112 L424 112.4 L422.4 120 L422.8 128 L424 130.2 L427.6 136 L432 143.9 L432 144 L435.1 152 L435.2 160 L435.9 168 L440 175.8 L440.1 176 L447.4 184 L448 184.6 L454.9 192 L456 193.1 L461.4 200 L464 203 L468.8 208 L472 211.9 L475.2 216 L479.5 224 L480 224.5 L487.6 232 L488 232.3 L496 238.5 L497.7 240 L504 245.1 L508.3 248 L512 250.1 L520 253.4 L528 254.7 L536 254.7 L544 255.7 L545.4 256 L547.9 264 L544 269.3 L541.4 272 L536 276.6 L531.3 280 L528 287.9 L528 288 L526.4 296 L525.3 304 L526.2 312 L528 320 L528 320.1 L529.6 328 L532.6 336 L536 344 L536 344.1 L538.7 352 L543.8 360 L544 360.5 L546.3 368 L548.5 376 L551.4 384 L552 385.4 L555.7 392 L560 399.7 L560.2 400 L562.2 408 L562.1 416 L564 424 L567.7 432 L568 432.3 L573.1 440 L576 443 L581.4 448 L584 449.5 L592 451.2 L600 449.4 L602 448 L608 442.2 L611 440 L616 435.1 L618 432 L624 426.2 L629.4 424 L632 422.9 M480 0 L480 0 L480 0 M509.4 0 L512 1.5 L518.1 8 L520 12.6 L520.9 16 L520.9 24 L521.1 32 L521.1 40 L523.7 48 L528 54.3 L529 56 L536 64 L536 64 L544 69.8 L548 72 L552 75.4 L555.5 80 L558 88 L560 90.9 L565.5 96 L568 98.8 L576 98.3 L577.9 96 L584 88.8 L585.5 88 L584 86 L582 80 L576 74.4 L574.1 72 L569.1 64 L568 61 L565.8 56 L562.7 48 L560 44.1 L557.6 40 L555.6 32 L557 24 L557.9 16 L557.4 8 L558.3 0 M590.8 0 L592 0.3 L600 0.4 L608 0.6 L616 1.4 L624 1.5 L631.2 0 M102 112 L104 106.1 L112 105.5 L117.2 112 L112.1 120 L112 120 L111.9 120 L104 115.2 L102 112 M247.7 184 L248 183.8 L252.5 184 L248 184.4 L247.7 184 M0 211.6 L8 215.2 L9.3 216 L16 222.3 L17.7 224 L16 226.8 L12.1 232 L8 234.3 L0 238 M0 252.2 L8 254 L9.3 256 L11.8 264 L10.9 272 L8.9 280 L8.6 288 L8.7 296 L8 299.1 L7 304 L3.2 312 L0 315.4 M0 399.4 L2.4 400 L8 400.9 L16 403.4 L21.7 408 L24 410 L30.3 416 L32 417.6 L40 423.3 L41.3 424 L45.6 432 L40 436 L34.1 440 L32 440.9 L24 445.5 L16.6 448 L16 448.5 L8 455.3 L7.6 456 L7.6 464 L6.2 472 L8 476.5 L16 477.9 L23.7 480 L24 480.1 L32 483.6 L40 485.4 L48 487.4 L49 488 L56 495.2 L58 496 L61.9 504 L56 507 L48 508.8 L40 505.3 L38.3 504 L32 499.4 L24 496.5 L21.3 496 L16 494.7 L8 491.3 L0 490 M0 620.6 L4.2 624 L8 628 L12.6 624 L8.7 616 L8 614.2 L5.4 608 L5.6 600 L5.2 592 L4.2 584 L2.3 576 L4.5 568 L8 565.6 L15.1 560 L15.6 552 L14.4 544 L15.8 536 L16 535.9 L16.4 536 L24 538.3 L32 540.7 L40 543.1 L42.2 544 L48 546.9 L56 551.3 L56.8 552 L56.4 560 L56 560.9 L54.7 568 L56 572.4 L58.2 576 L64 580.3 L72 581.6 L78 576 L79.2 568 L80 567 L80.8 568 L82.1 576 L82.1 584 L86.1 592 L88 594.1 L90 600 L94.1 608 L96 611.2 L98.5 616 L102.1 624 L104 626.7 L106.8 632 M339.6 0 L340.9 8 L342.8 16 L343.9 24 L344 26 L344.7 32 L346.7 40 L350.4 48 L352 53.1 L359.9 48 L360 47.9 L361.5 40 L365.1 32 L368 26.8 L369.3 24 L370.2 16 L369.9 8 L368.5 0 M0 15.8 L0.1 16 L2.9 24 L8 28.2 L11.2 32 L16 38.1 L18 40 L24 45 L26.3 48 L32 52 L38.2 56 L40 57.8 L48 63.2 L48.7 64 L54.9 72 L56 73.8 L58.9 80 L59.2 88 L57 96 L56 98.4 L52.8 104 L49.3 112 L48 115 L45 120 L40 125.9 L37.7 128 L32 133.5 L29.6 136 L26.4 144 L24 148.5 L19.9 152 L16 154.6 L8 155.7 L0 158.4 M485.7 344 L488 340.3 L489 344 L496 351.4 L496.4 352 L504 359.5 L504.2 360 L506.1 368 L506.8 376 L508.5 384 L511.8 392 L504 395 L496 392.2 L495.7 392 L496 389 L496.7 384 L496 381.4 L494.3 376 L488.7 368 L488 366.3 L486.2 360 L487.4 352 L485.7 344 M632 630 L625.6 624 L624 621.7 L616.5 616 L616 615.5 L613 608 L611.4 600 L611.2 592 L611.9 584 L608.7 576 L608 575.3 L600 570.2 L595.7 568 L592 564.9 L587.5 560 L584 554.1 L583.1 552 L580.7 544 L578.7 536 L576 530 L575 528 L570.7 520 L568 515.8 L563.2 512 L560 508.6 L556.6 504 L552 500.5 L546.2 496 L544 493.9 L536.8 488 L536 486.7 L533.2 480 L528 473.8 L527 472 L525.3 464 L523.5 456 L521 448 L520 440.9 L519.9 440 L518.2 432 L519.8 424 L520 423.7 L528 422.7 L528.4 424 L530.5 432 L536 439.2 L536.3 440 L539.7 448 L544 451.4 L549 456 L552 459.5 L556.3 464 L560 467.5 L567.4 472 L568 473 L570.4 480 L571.4 488 L573.7 496 L576 499.1 L581.4 504 L584 507.1 L587.3 512 L592 516.8 L597.7 520 L600 521.4 L605 528 L608 535.7 L608.1 536 L611.6 544 L616 550.7 L616.6 552 L624 559.9 L624 560 L629.2 568 L632 570.3 M632 409.6 L624 414.2 L620.5 416 L616 419.2 L608.3 424 L608 424.3 L600 430.8 L596.5 432 L592 433.3 L587.3 432 L584 430.5 L580.2 424 L581.8 416 L582.6 408 L579.8 400 L576 394.9 L573.4 392 L568 387.5 L564.9 384 L560.1 376 L560 375.5 L558.8 368 L556.4 360 L552 353.5 L551.2 352 L545.3 344 L544 342.2 L540.9 336 L538.1 328 L538.9 320 L542.8 312 L543.6 304 L544 302.6 L545.2 296 L546.8 288 L550.2 280 L552 277.4 L555.5 272 L560 267.3 L563.4 264 L568 258.9 L571 256 L576 250.8 L581 248 L584 242.4 L586.2 240 L584 238.4 L576 236.8 L568 236.8 L560 238.3 L556.4 240 L552 241.5 L544 244.2 L536 246 L528 246.4 L520 245 L512 240.3 L511.5 240 L504.6 232 L504 231.1 L496 225.2 L494.2 224 L490.7 216 L491.8 208 L488 201.8 L480 202 L475 200 L472 198.7 L467.6 192 L464 184.4 L463.8 184 L459.5 176 L456 169.8 L451.7 168 L448 164.3 L447.1 160 L448 156.7 L449.8 152 L450.2 144 L448.5 136 L448 133.7 L445.9 128 L443.9 120 L444.8 112 L448 109.1 L454.7 104 L456 101.4 L457.2 96 L457.1 88 L456 80.9 L455.9 80 L453 72 L449.3 64 L448 61.2 L445.5 56 L441.4 48 L440 43.5 L438.2 40 L440 34.7 L448 33 L456 33.4 L464 33.5 L472 33.3 L480 32.6 L483.2 32 L488 30.4 L496 28.3 L502.7 32 L504 32.8 L507.6 40 L511.2 48 L512 50.1 L514.6 56 L520 64 L520 64 L527.9 72 L528 72.1 L536 79.1 L537.3 80 L543.7 88 L544 88.7 L548.5 96 L552 98.8 L557.6 104 L560 106 L564.8 112 L568 117.1 L572 120 L576 122.8 L581.4 120 L584 116.5 L585.7 112 L592 104 L592 104 L600 100.2 L608 98 L616 96.7 L619 96 L624 91.4 L626.2 88 L624 86.9 L618.1 80 L616 78.4 L608 76.1 L600 73.9 L596.1 72 L592 68.8 L587.5 64 L584.4 56 L584 55.3 L580.3 48 L576 42.6 L574.2 40 L570.5 32 L570.9 24 L572.4 16 L576 11.9 L584 11.7 L592 13.7 L600 14 L608 14.2 L616 14.7 L624 14.9 L632 13.3 M199.8 80 L200 79.4 L200.5 80 L200 80.8 L199.8 80 M220.7 88 L224 85.9 L232 86 L234.9 88 L235.4 96 L232 96.4 L230.5 96 L224 90.4 L220.7 88 M230 144 L232 139.3 L234.2 144 L232 146.4 L230 144 M119.8 632 L117.9 624 L116.9 616 L112 610.2 L110.1 608 L105.7 600 L105.1 592 L105.4 584 L108.1 576 L110.3 568 L112 561.8 L112.5 560 L113.5 552 L113.3 544 L114.3 536 L118.2 528 L119.3 520 L113.6 512 L112 507 L108.4 504 L110.6 496 L112 495.1 L120 490.7 L128 489.5 L136 489.5 L144 491.7 L152 495.6 L152.6 496 L160 499 L165.4 504 L168 505.7 L176 511.1 L178 512 L184 514.6 L192 519.6 L192.6 520 L200 523.8 L208 526.6 L210.6 528 L216 530.5 L223.7 536 L224 536.2 L232 543.2 L232.9 544 L237.9 552 L240 560 L240 560.1 L242.3 568 L245.2 576 L248 583 L248.7 584 L254.2 592 L256 595.2 L260.4 600 L264 606.6 L272 601.6 L272.6 600 L272.1 592 L272 591.6 L269.7 584 L268.3 576 L269 568 L271.8 560 L272 559.2 L275.7 552 L279.6 544 L280 543.7 L288 537.6 L289.9 536 L288 533.4 L285.8 528 L280 522.7 L277.2 520 L272 513.4 L271.2 512 L268.4 504 L267.4 496 L264 490.4 L256 489 L254.4 488 L248 485.2 L240.9 480 L240 479.2 L233.1 472 L232 471 L224 465.2 L222.1 464 L216 460.3 L211.3 456 L208.6 448 L208 446.1 L201.2 440 L200 439.3 L195.4 432 L194.1 424 L192 416.4 L191.9 416 L188.3 408 L186.6 400 L187.7 392 L192 384.7 L192.9 384 L200 379.9 L205.6 376 L204.4 368 L200 365.1 L192 360.8 L190.6 360 L184 357.3 L178.1 352 L176 349.3 L172.6 344 L169.1 336 L168 330.2 L167.4 328 L168 326 L171.6 320 L170.5 312 L168 309.8 L160 304.2 L159.9 304 L156.3 296 L157.9 288 L157.6 280 L157.3 272 L160 264.6 L168 264.1 L168.8 264 L176 261.6 L177.8 256 L184 249.3 L185.1 248 L192 242.8 L198.4 240 L200 239.3 L201 240 L208 242.7 L216 244.7 L224 245.4 L229.1 248 L232 249.4 L238.6 256 L240 258.8 L243.6 264 L248 271.3 L248.6 272 L256 279 L264 277.8 L271.3 272 L272 271.6 L280 268.2 L288 265.7 L296 264.6 L304 267 L312 271.1 L313.7 272 L320 277.1 L328 278.9 L336 278.4 L338.2 280 L344 287 L344.6 288 L352 294.3 L354.1 296 L360 300.8 L364.7 304 L368 306.1 L376 311.5 L376.9 312 L384 316 L392 318.5 L395.1 320 L400 322.3 L405.6 328 L408 332.3 L409.5 336 L413.2 344 L416 347.9 L418.7 352 L424 359.5 L424.4 360 L427 368 L426.3 376 L425.9 384 L426.8 392 L430.6 400 L432 402.4 L435.5 408 L437.1 416 L434 424 L432 425.7 L424 429.7 L416 431.6 L413.4 432 L408 433 L400 434.4 L396.1 440 L393.6 448 L392.9 456 L398.3 464 L400 464.7 L408 467.1 L416 471.4 L416.7 472 L416.7 480 L417.5 488 L424 493.3 L432 494.8 L434.6 496 L440 500.3 L448 503.8 L449.3 504 L456 504.6 L458.2 504 L464 501.8 L472 501.5 L475.2 504 L480 511.8 L480.1 512 L482.8 520 L488 526.2 L490.3 528 L496 533.8 L497.8 536 L496.8 544 L496 545.1 L491 552 L488 553.8 L480 558.8 L478.2 560 L472 567.6 L471.7 568 L468.5 576 L467.5 584 L470.4 592 L472 592.6 L473.8 592 L480 589.6 L488 586.6 L496 587.1 L500.8 592 L504 596.7 L507.6 600 L512 603 L520 604.4 L528 604.5 L536 603.3 L544 606.7 L544.6 608 L548.9 616 L550.9 624 L552 631.4 L552.1 632 M70.8 296 L72 295.2 L80 295.4 L80.5 296 L87.3 304 L88 304.7 L92.3 312 L95.5 320 L96 322.3 L97.1 328 L98.8 336 L103.2 344 L104 344.9 L109 352 L112 357.2 L113.7 360 L118.2 368 L120 370.1 L123.5 376 L126.3 384 L127.5 392 L127.2 400 L126.8 408 L128 409.4 L131.4 416 L136 423.4 L136.3 424 L137.5 432 L139 440 L144 448 L144 448 L149.1 456 L152 461.2 L154.4 464 L157.6 472 L152 478.4 L146.1 480 L144 481.2 L136 482.6 L128 482.2 L123.9 480 L120 479.1 L112 472.9 L110.4 472 L104 470.1 L98.9 472 L96 475.8 L94.1 480 L88 483.8 L80 482 L72.8 480 L72 479.6 L64 476.1 L59.2 472 L64 467.7 L72 466.8 L75.8 464 L76.8 456 L76.4 448 L74.5 440 L72 435.4 L70.3 432 L64 428.2 L58.5 424 L56 422.1 L49.2 416 L48 414.6 L40 408.9 L38.9 408 L34.4 400 L32 397.6 L24 392.5 L22.9 392 L16 387.8 L11.2 384 L8 379.1 L6.6 376 L4.9 368 L8 360.8 L8.7 360 L16 354.4 L18.3 352 L24 344.5 L24.4 344 L28.6 336 L31.2 328 L32 326 L33.9 320 L38 312 L40 309.3 L48 306.4 L56 305.4 L58.3 304 L64 300.4 L70.8 296 M632 83 L627.3 80 L624 77.8 L616.5 72 L616 71.6 L608 69.6 L600 66.4 L597 64 L592.8 56 L592 55 L588 48 L584 43.4 L581.2 40 L576.9 32 L577.9 24 L584 18.2 L592 19.9 L600 19.7 L608 20.2 L616 21.9 L624 22.4 L632 19.8 M632 403.6 L625.8 408 L624 409.1 L616 412.6 L608 414.6 L604.6 416 L600 419 L592.4 416 L592 415.7 L589.7 408 L586.9 400 L584 394.3 L582.2 392 L576 386 L573.7 384 L568 376 L568 376 L565.5 368 L562.6 360 L560 355.2 L557.8 352 L552 346.3 L550.2 344 L544.7 336 L544 333.9 L542.3 328 L544 323 L545.9 320 L551.8 312 L551.8 304 L552 296 L552 295.9 L553.9 288 L557.7 280 L560 276.2 L562.4 272 L568 266.5 L570.5 264 L576 258.6 L583.5 256 L584 255.8 L592 251.6 L594.9 248 L600 244.6 L608 242.4 L615.5 240 L608 235.4 L605 232 L600 230.2 L592 228.3 L584 228.2 L576 228.9 L568 229.2 L560 230.4 L557.5 232 L552 235 L544 239.1 L541.5 240 L536 241.5 L528 241.4 L521.1 240 L520 239.7 L512 232.7 L511.4 232 L505.6 224 L504 218.9 L502.1 216 L499.5 208 L496.9 200 L496 197.6 L488 193.4 L480 195.8 L473.4 192 L472 190.7 L468.7 184 L466.1 176 L465.9 168 L464 163.6 L461.4 160 L458.1 152 L457.6 144 L457.1 136 L456.6 128 L457.2 120 L460 112 L464 105.7 L464.6 104 L464.7 96 L464 88.1 L464 88 L462.5 80 L460.3 72 L456.2 64 L456 63.6 L452.2 56 L450.2 48 L456 41.1 L460.4 40 L464 39.6 L472 39.6 L480 38.7 L488 38.2 L496 38.6 L497.9 40 L504 45.4 L505.4 48 L508.9 56 L512 61.7 L513.5 64 L520 70.9 L521.1 72 L528 79.3 L528.8 80 L535.4 88 L536 88.8 L540.1 96 L544 101.1 L547.8 104 L552 106.1 L559.1 112 L560 113 L564.5 120 L566.3 128 L568 132.4 L576 130.9 L584 130.3 L587.4 128 L591.3 120 L592 118.2 L594.2 112 L600 106.4 L606.9 104 L608 103.7 L610.9 104 L616 104.5 L621.9 104 L624 103.7 L632 99.3 M126.8 632 L125 624 L125.9 616 L120.7 608 L120 607.5 L112.2 600 L112 599.5 L109.5 592 L111.7 584 L112 583.4 L115.5 576 L118.9 568 L120 565.8 L123.7 560 L126.4 552 L126.8 544 L128 540.7 L129.7 536 L136 529.6 L138.1 528 L142.8 520 L136 515.8 L128 513.9 L125.8 512 L123.5 504 L128 500.9 L136 500.6 L144 502.8 L147.6 504 L152 506.6 L160 508 L168 511.7 L168.4 512 L176 516.5 L183.6 520 L184 520.3 L192 525.7 L196.2 528 L200 530.6 L208 532.4 L216 535.8 L216.3 536 L224 542 L226.2 544 L232 551.7 L232.2 552 L234.2 560 L235.3 568 L238 576 L240 579.5 L242.1 584 L247.9 592 L248 592.1 L253.1 600 L256 605.9 L257.4 608 L260.6 616 L264 621.6 L268.6 624 L272 627.1 L278.1 624 L278.3 616 L279.2 608 L280 604.7 L280.8 600 L280 595.3 L279.4 592 L278.3 584 L278.7 576 L280 571.2 L281.1 568 L288 561.1 L289.6 560 L292.8 552 L296 548.4 L304 544 L304.1 544 L304 541 L303.9 536 L296 529.7 L294.5 528 L288 522.2 L285.6 520 L280 515.6 L276.8 512 L273.5 504 L273 496 L272.3 488 L272 486.8 L264 484.2 L256 484.3 L248 480 L247.9 480 L240 472.7 L239.3 472 L232 465.5 L230 464 L224 460.2 L217.6 456 L216 452.7 L214.2 448 L214 440 L208 433.8 L204.7 432 L200 426.8 L199.3 424 L196.8 416 L194.2 408 L193.1 400 L196.5 392 L200 388.9 L206.3 384 L208 382.8 L216 376 L215.1 368 L208 361.7 L205.5 360 L200 356 L192 353.7 L187 352 L184 350.3 L179.3 344 L177.3 336 L184 328.6 L184.7 328 L192 320.7 L192.9 320 L192 315.9 L191.3 312 L186.4 304 L184.3 296 L187.5 288 L192 284.2 L198.7 280 L200 278.2 L202.4 272 L203.9 264 L208 258.7 L210.3 256 L216 253.8 L224 254.2 L226.8 256 L232 263.6 L232.2 264 L234.5 272 L238.8 280 L240 281.4 L247.5 288 L248 288.4 L256 292.1 L264 291 L268.5 288 L272 284.7 L275.7 280 L280 276.1 L285 272 L288 271 L296 270.5 L300.6 272 L304 273.7 L311.2 280 L312 280.7 L318.7 288 L320 289.7 L325 296 L328 301.5 L332 304 L336 305.9 L344 305.2 L352 305.2 L360 309.5 L364.3 312 L368 314.5 L375 320 L376 320.8 L384 324.7 L392 325.7 L396.7 328 L400 330.2 L403.6 336 L408 343.3 L408.3 344 L414.3 352 L416 354.6 L419.8 360 L421.5 368 L421 376 L420.9 384 L421.4 392 L424 398.1 L424.8 400 L429.6 408 L430.8 416 L424.1 424 L424 424.1 L416 425.4 L408 426 L400 426.1 L392 429 L389 432 L388.7 440 L387.3 448 L385.3 456 L385.4 464 L392 468.6 L400 471.5 L401.7 472 L408 477 L409.3 480 L411.7 488 L416 494.4 L418.1 496 L424 498.6 L432 500.3 L436.2 504 L440 507.1 L448 509.3 L456 509.8 L464 508.3 L472 509.4 L473.9 512 L477.2 520 L480 524.2 L483 528 L488 533.1 L490.9 536 L491.1 544 L488 548.3 L484.6 552 L480 554.6 L472 560 L472 560 L466.1 568 L464 573.7 L463.2 576 L462.1 584 L462.1 592 L464 594.7 L472 597 L480 594.5 L486.7 592 L488 591.5 L490.8 592 L496 593.7 L500.2 600 L504 606.1 L508 608 L512 609.5 L520 610.4 L528 611.9 L535 616 L536 617.1 L541.4 624 L544 630.3 L544.5 632 M66.2 312 L72 308.5 L80 305.9 L87 312 L88 312.9 L90.4 320 L91.9 328 L93.6 336 L96 343.3 L96.3 344 L103.2 352 L104 353.1 L108 360 L111.9 368 L112 368.2 L118.8 376 L120 378.3 L122.2 384 L122.4 392 L120 400 L120 400.1 L117.5 408 L119.1 416 L112 422.5 L104 422.9 L99.3 424 L97.6 432 L104 436.7 L112 436.2 L120 434.4 L124.5 432 L127.9 424 L128 424 L128 424 L128.9 432 L131.4 440 L136 444.7 L137.6 448 L143.2 456 L144 457.8 L146.3 464 L144 470.8 L136 471 L128 468.1 L120 464.1 L119.8 464 L112 459.9 L105.3 456 L104 453.9 L96 452.8 L88 451.1 L87.6 448 L87.2 440 L85.1 432 L80 429.6 L72 426.1 L67.9 424 L64 422.6 L56 416.6 L55.3 416 L49 408 L48 406 L44.7 400 L43.8 392 L40 386.1 L32 386.4 L24 385.2 L22.2 384 L16.1 376 L19.2 368 L24 364.5 L31.8 360 L32 359.9 L38.3 352 L38.2 344 L36.4 336 L36.9 328 L39.9 320 L40 319.8 L48 316.2 L56 316.8 L64 313.2 L66.2 312 M279.9 632 L280 631.4 L280.1 632 M632 75.6 L626.5 72 L624 69.6 L616 64.1 L615.6 64 L608 59.7 L603.9 56 L600 53.1 L595.8 48 L592 42.5 L589.9 40 L587.3 32 L592 28.8 L600 25.6 L608 26.2 L616 28.2 L624 28.6 L632 26.5 M632 234.8 L626 232 L624 231.5 L616 229.4 L608 227 L600 224.6 L597.1 224 L592 223 L584 222.6 L576 222.3 L568 221.5 L560 222.5 L557 224 L552 227 L545.6 232 L544 232.9 L536 236.8 L528 236.4 L520 233.3 L518.6 232 L512 225.7 L510.8 224 L507.4 216 L505.7 208 L504 201.6 L503.5 200 L504 194.8 L504.7 192 L504 188.6 L496 184.2 L488 186.6 L480 188.6 L475.1 184 L472 176.1 L472 176 L472 175.8 L473.1 168 L472 165.9 L469.3 160 L464.8 152 L464 146 L463.6 144 L463.1 136 L463.8 128 L464 126.7 L465 120 L467.1 112 L469.9 104 L470.2 96 L469.2 88 L468.7 80 L467.3 72 L464 64 L464 64 L460.1 56 L464 48.1 L464.3 48 L472 46.7 L480 45.4 L488 45.4 L496 47.1 L497 48 L503 56 L504 57.3 L507.1 64 L512 70.5 L513.4 72 L519.9 80 L520 80.1 L526.3 88 L528 90.6 L531.9 96 L536 101.9 L537.5 104 L544 110 L549.1 112 L552 113.3 L558.5 120 L559.5 128 L557.3 136 L558 144 L560 146.2 L568 146.2 L571.3 144 L576 139.5 L584 139.3 L592 140.8 L596 136 L598.7 128 L600 120.6 L600.1 120 L603.4 112 L608 109.8 L616 110.6 L624 112 L632 107.5 M632 397.2 L628.4 400 L624 402.9 L616 406.2 L608 406.7 L600 407.1 L592.6 400 L592 398.7 L589.7 392 L584 384.2 L583.7 384 L576 376.3 L575.7 376 L571.3 368 L568 360.5 L567.8 360 L563.8 352 L560 347.7 L556.2 344 L552 339.4 L549.6 336 L547.3 328 L552 321.6 L553.5 320 L558.3 312 L558.3 304 L558.2 296 L560 289.9 L560.7 288 L564.8 280 L568 274.5 L569.7 272 L576 265.5 L578.6 264 L584 261.9 L592 263.1 L600 261.2 L604.5 256 L608 253.1 L616 250.9 L624 249.8 L632 248.9 M215.8 272 L216 271.3 L224 270.6 L224.4 272 L224.9 280 L224 287 L221.5 280 L216 272.9 L215.8 272 M298 632 L296 630 L289.9 624 L288 620.4 L286.1 616 L285.6 608 L287.2 600 L286.6 592 L284.5 584 L285.5 576 L288 572.2 L296 568.2 L296.5 568 L303.8 560 L304 559.1 L305.8 552 L312 548.3 L317.6 544 L313 536 L312 535.5 L304 530.3 L301.4 528 L296 523.1 L292.7 520 L288 516.2 L282.8 512 L280 508.1 L278 504 L277.3 496 L277.5 488 L276.9 480 L272 475.2 L264 479.1 L256.1 480 L256 480 L256 480 L248 475 L244.8 472 L240 467 L236.7 464 L232 459.6 L225.4 456 L224 454.7 L220 448 L220.5 440 L222.5 432 L216 428.4 L208 425.1 L206.9 424 L202.5 416 L200.6 408 L200.6 400 L206.5 392 L208 390.8 L216 386.5 L220.2 384 L224 380.6 L226.4 376 L226.6 368 L224 364.7 L217.5 360 L216 359.2 L208.1 352 L208 351.9 L200 348.2 L192 345.1 L190.2 344 L189.4 336 L192 333.7 L199.7 328 L200 327.7 L208 323.5 L213.6 320 L210.6 312 L208 308.9 L204.4 304 L203.7 296 L208 292.2 L216 288.1 L224 288.3 L232 294.7 L234.1 296 L240 299.1 L248 303 L256 304 L264 305.6 L267.4 304 L272 301 L276.1 296 L280 292.3 L284.3 288 L288 283.2 L292.4 280 L296 278.8 L298.4 280 L304 282.6 L310.2 288 L312 289.5 L317.3 296 L320 302.2 L321 304 L328 311.4 L329 312 L336 315.7 L344 316.5 L352 317.7 L358.4 320 L360 320.6 L368 325.7 L371 328 L376 330.6 L384 333.2 L392 334.4 L394.4 336 L400 339.8 L402.5 344 L408 349.4 L410 352 L414.6 360 L415.3 368 L415.3 376 L415.7 384 L415.6 392 L416 393.4 L418.1 400 L423.9 408 L423.8 416 L416 418.9 L408 420.1 L400 420.5 L392 421.6 L384 423.8 L383.4 424 L379.2 432 L382.2 440 L381.3 448 L378 456 L376 460.5 L375.2 464 L376 465.1 L384 470.5 L386.1 472 L392 474.9 L400 478.5 L401.7 480 L406.5 488 L408 491.6 L410.6 496 L416 500.5 L424 503.6 L425.7 504 L432 505.7 L439.8 512 L440 512.1 L448 514.4 L456 515.2 L464 515.7 L470.5 520 L472 521.7 L475.5 528 L480 533.2 L482.7 536 L484.2 544 L480 548.6 L476.3 552 L472 554.4 L464.8 560 L464 561.2 L461 568 L458.4 576 L457.4 584 L458 592 L463.6 600 L464 600.3 L472 601.5 L477.4 600 L480 599.3 L488 598.1 L491.7 600 L496 604.8 L497.7 608 L502.7 616 L504 616.8 L512 616.9 L520 617.6 L528 619.8 L532.2 624 L536 628.8 L538.1 632 M45.2 328 L48 325.6 L56 327.7 L64 326.6 L72 322.6 L80 320.7 L83.9 328 L88 333.4 L88.7 336 L91.7 344 L96 351.7 L96.2 352 L102.3 360 L104 362.8 L106.6 368 L112 374.5 L113.3 376 L117.8 384 L117.5 392 L114.4 400 L112 404.6 L107.7 408 L104 410.5 L96 413.4 L88 415.9 L87.8 416 L80 420.1 L72 420.3 L64 417.2 L62.4 416 L57.1 408 L56 404.6 L53.9 400 L54.9 392 L55.1 384 L55.5 376 L56 373.6 L57 368 L56 361.7 L55.5 360 L51.1 352 L48 346.6 L47.2 344 L44.8 336 L45.2 328 M134.6 632 L132.5 624 L133.8 616 L129.7 608 L128 607 L120 601.2 L118.8 600 L114 592 L116.2 584 L120 577.6 L121.2 576 L127 568 L128 566.6 L134.3 560 L136 556.4 L138.4 552 L139.5 544 L144 537.5 L146.5 536 L152 532.9 L156.7 528 L160 520.8 L161.7 520 L168 519.5 L169.4 520 L176 523.4 L184 527.6 L184.6 528 L192 533.7 L196 536 L200 539.1 L208 540.9 L214.5 544 L216 545.4 L223 552 L224 556.2 L224.4 560 L226.2 568 L230.3 576 L232 578.6 L234.9 584 L240 589.6 L241.7 592 L248 599.7 L248.2 600 L250.6 608 L254 616 L256 620.4 L258.1 624 L264 631.1 L264.9 632 M0 34.4 L4 40 L8 48 L8 48 L16 53 L24 55 L26 56 L32 62.1 L34 64 L40 71.9 L40.2 72 L44.2 80 L45.8 88 L45.8 96 L44 104 L41.4 112 L40 114.6 L34.5 120 L32 122 L25.6 128 L24 129.7 L16 131.4 L8 131 L0 133.9 M632 609.3 L631.5 608 L627.3 600 L624 594.9 L622.2 592 L623 584 L624 582.3 L627.6 584 L632 586.4 M632 65.5 L630.4 64 L624 58.5 L619.7 56 L616 53.7 L608 48.7 L607 48 L600.6 40 L608 33.9 L616 35.4 L624 35.4 L632 34 M632 228 L624 226.2 L617.2 224 L616 223.4 L608 220 L600 218.3 L592 217.9 L584 217.4 L576.4 216 L576 215.9 L568 213.8 L560 215.3 L558.3 216 L552 218.5 L545 224 L544 224.8 L536.3 232 L536 232.1 L534.4 232 L528 231.2 L520 227.2 L516.7 224 L512 217.2 L511.4 216 L511.1 208 L512 204.8 L513.9 200 L517 192 L516.1 184 L512 181.2 L504 178.1 L496 177.3 L488 177.8 L483.5 176 L480.6 168 L480 167.2 L476.2 160 L472 155.6 L469.7 152 L467.7 144 L468.2 136 L469.9 128 L471.2 120 L472 115.7 L472.8 112 L475.4 104 L475.5 96 L474.7 88 L474.8 80 L473.9 72 L472.5 64 L477.7 56 L480 55.3 L488 55.7 L488.5 56 L496 62.1 L497.5 64 L504 71.2 L504.5 72 L512 79 L512.9 80 L517.9 88 L520 91.6 L522.8 96 L527 104 L528 105.2 L533.7 112 L536 114.3 L544 119.2 L545.8 120 L551.8 128 L549.8 136 L549.5 144 L552 150.1 L553.5 152 L560 156.3 L568 154.4 L570.6 152 L576 148.2 L584 147.1 L592 148.9 L600 145.8 L601.2 144 L604.3 136 L608 128.4 L608.5 128 L616 122 L624 122.7 L632 120.7 M632 390.1 L628.7 392 L624 395.4 L616 399.8 L610.6 400 L608 400.1 L607.4 400 L600 397.6 L596.7 392 L592 384.1 L591.9 384 L585.2 376 L584 374.9 L576.6 368 L576 367.3 L572.1 360 L569.1 352 L568 350.4 L562.4 344 L560 341 L555.5 336 L552.8 328 L560 320 L560 320 L565.9 312 L565.2 304 L565.4 296 L568 289.2 L568.5 288 L572.6 280 L576 275.1 L581.2 272 L584 270.5 L592 271.5 L596.7 272 L600 272.5 L601.3 272 L608 269.2 L616 264 L616 264 L624 259.7 L632 257.5 M306.1 632 L304 629.1 L299.2 624 L296 619.4 L294.2 616 L293.4 608 L295.4 600 L293.8 592 L290.2 584 L292.2 576 L296 573.3 L304 571.1 L312 568.5 L312.4 568 L312.4 560 L317.5 552 L320 550.1 L326.5 544 L323.1 536 L320 534.3 L312 530.3 L308.6 528 L304 524.9 L298.7 520 L296 516.5 L289.9 512 L288 510.2 L283.6 504 L282.7 496 L283.5 488 L284.4 480 L284.8 472 L280 465.9 L272 467 L265.7 472 L264 472.9 L256 474.6 L251.7 472 L248 469.4 L242.9 464 L240 460.6 L235 456 L232 452.8 L226.8 448 L226.7 440 L230.9 432 L228.3 424 L224 421.8 L216 419.5 L211.4 416 L208.9 408 L212.2 400 L216 397.7 L224 393.7 L226.1 392 L232 384.4 L232.2 384 L234.2 376 L235.8 368 L236 360 L232 357.3 L224 354.3 L219.9 352 L216 349.6 L208.4 344 L208 341.5 L205.7 336 L208 335.3 L216 331.8 L222.4 328 L224 326.7 L232 321 L240 320.5 L248 322.6 L256 322.7 L264 320.5 L265.4 320 L272 317 L278.3 312 L280 310.7 L286.7 304 L288 302.7 L294.8 296 L296 294.6 L304 292.6 L308.7 296 L312 301.3 L312.8 304 L318.5 312 L320 313.5 L327.7 320 L328 320.3 L336 325.8 L343.4 328 L344 328.4 L352 332.6 L360 335.4 L361.6 336 L368 338.1 L376 340.5 L384 343.1 L387.4 344 L392 347 L400 351.1 L400.9 352 L400 354.8 L396.8 360 L400 365.4 L401.3 368 L406.9 376 L408 378.6 L409.3 384 L410.2 392 L411.8 400 L415.1 408 L408 413.9 L400 415.4 L396.4 416 L392 416.5 L384 418.8 L376 422 L371.7 424 L370.2 432 L375.4 440 L375.2 448 L372.5 456 L371.6 464 L376 470.3 L378.4 472 L384 477.3 L390.4 480 L392 480.7 L400 485.5 L401.7 488 L405.2 496 L408 500.9 L412.1 504 L416 506 L424 508.4 L432 511.1 L433.1 512 L440 516.8 L448 519.2 L452.6 520 L456 520.6 L464 525.4 L466.4 528 L472 533.4 L474.2 536 L475.3 544 L472 547 L467.3 552 L464 554.5 L459.7 560 L456.2 568 L456 568.6 L453.4 576 L453 584 L453.6 592 L456 597.9 L457.2 600 L464 605.1 L472 606.2 L480 605.5 L488 607.2 L488.7 608 L491.2 616 L493.6 624 L496 628.1 L504 626.4 L509.7 624 L512 623.4 L517.6 624 L520 624.3 L528 628.5 L530.9 632 M62.5 344 L64 342.4 L72 337.2 L80 337.5 L86.3 344 L88 346 L90.8 352 L96 359.8 L96.2 360 L101.4 368 L104 371.5 L107.6 376 L112 382.1 L113.1 384 L112.7 392 L112 393.6 L107.4 400 L104 402.9 L96 407.5 L94.7 408 L88 410.3 L80 413.6 L72 414.8 L64 408.5 L63.7 408 L61.5 400 L61.7 392 L61.5 384 L63.1 376 L64 373.2 L65.8 368 L66.1 360 L64.7 352 L64 348.6 L62.5 344 M143.4 632 L140.5 624 L141.9 616 L138.6 608 L136 606.3 L128 601.7 L125.8 600 L120 593.8 L118.8 592 L120 586.6 L120.6 584 L126.5 576 L128 574.1 L134 568 L136 566 L143.9 560 L144 559.8 L151.6 552 L152 551.3 L159.6 544 L160 543.7 L168 537.2 L176 536.7 L184 540.2 L188.8 544 L192 545.8 L200 551.2 L201.2 552 L208 560 L208 560 L216 567.5 L216.3 568 L222.1 576 L224 579.1 L227.4 584 L231.6 592 L232 592.7 L239.1 600 L240 601.2 L243.1 608 L248 615.9 L248.1 616 L251.7 624 L256 629.4 L258.3 632 M0 63.5 L0.4 64 L0 64.6 M0 86.7 L1.2 88 L8 96 L8 96 L16 99.4 L24 100.5 L26.8 104 L24 106 L18 112 L16 113.7 L8 115.4 L0.5 112 L0 111.6 M493.2 96 L496 92.9 L501 96 L504 98.1 L508 104 L510.3 112 L512 114.6 L514.5 120 L520 124.7 L523.3 128 L528 134.3 L529.1 136 L529.4 144 L528 146.2 L520 148 L512 150.5 L509.5 152 L512 160 L504 167.3 L496 163.9 L492.3 160 L489.8 152 L488 148.2 L480 144.5 L479.8 144 L480 143.4 L484.5 136 L486.1 128 L488 122 L489.5 120 L492.8 112 L491.5 104 L493.2 96 M632 214.5 L624 212.9 L617.3 208 L616 207 L608 203.2 L600 200.8 L593.9 200 L592 199.5 L585.8 192 L584 188.3 L582 184 L580.5 176 L581 168 L584 160.3 L592 162.2 L600 161.6 L604.2 160 L608 158.1 L613.3 152 L616 147 L619.8 144 L624 141.6 L632 140.7 M535.2 192 L536 191.1 L544 189.9 L547.8 192 L551.5 200 L544 203.7 L536 204.6 L532 200 L535.2 192 M632 379.4 L624 382 L619.9 384 L616 386.5 L608 386.5 L605.4 384 L600 378.5 L598.2 376 L592 369.4 L590.5 368 L584 362.4 L581.9 360 L578.4 352 L576 346.5 L574.6 344 L568.6 336 L568 333.8 L566.4 328 L568 326.5 L575.6 320 L576 319.6 L584 312.8 L584.9 312 L590.6 304 L592 302.2 L599.8 296 L600 295.9 L608 292.1 L615.3 288 L616 287.6 L624 283.1 L631.5 280 L632 279.7 M335.7 632 L333.2 624 L330.5 616 L328 608.4 L327.8 608 L323.1 600 L320 594.8 L317.7 592 L320 588.9 L328 587 L332.4 584 L329.7 576 L328 572.7 L326 568 L327.8 560 L328 559.8 L336 553.9 L338.3 552 L344 545.1 L344.7 544 L344 542.5 L340.8 536 L336 531.9 L329.8 528 L328 526.7 L320 521.3 L316.6 520 L312 514.3 L310.5 512 L305.8 504 L304 502.1 L300.5 496 L298.4 488 L298.5 480 L299.1 472 L296.9 464 L296 461.9 L293.9 456 L288 451.6 L280 453.5 L272 454.3 L267.6 456 L264 457.8 L256 458.6 L251.9 456 L248 452.6 L244.4 448 L241.4 440 L245.2 432 L248 426 L248.7 424 L248 421.6 L244.5 416 L240 411.4 L236.7 408 L240 401.1 L240.3 400 L242.5 392 L244.5 384 L248 376.4 L248.3 376 L255 368 L256 365.6 L258.3 360 L256 356.2 L252.6 352 L253 344 L256 343.3 L264 342.3 L272 343.2 L280 340 L285 336 L288 334.3 L295.5 328 L296 327 L303.4 320 L304 319.8 L304.3 320 L307.7 328 L310.2 336 L312 337.2 L320 343.3 L320.9 344 L328 346.9 L336 350 L341.3 352 L344 354 L352 358.5 L354.8 360 L360 361.7 L368 364 L376 366.2 L378.6 368 L384 372.1 L387.8 376 L392 380.2 L395.4 384 L400 390.8 L400.6 392 L400.2 400 L400 400.3 L392 403.5 L384.4 408 L384 408.2 L376 412.2 L368 415.1 L366.1 416 L360 419.4 L354.6 424 L352.1 432 L359 440 L360 441.4 L362.3 448 L363.4 456 L363.6 464 L367.2 472 L368 473.1 L373.3 480 L376 483.5 L381.2 488 L384 490.1 L392 494.1 L394 496 L397.9 504 L400 506.8 L405 512 L408 514.4 L416 516.7 L424 518.6 L427 520 L432 522.2 L440 525.8 L448 527.8 L448.6 528 L456 531.1 L460.5 536 L460.9 544 L456 550.5 L454.9 552 L449.9 560 L448 563.5 L444.6 568 L442.3 576 L443.9 584 L443.8 592 L444.4 600 L448 604.1 L452 608 L456 611.2 L464 615.4 L468.2 616 L472 617 L478.3 624 L480 631 L480.2 632 M79 376 L80 373.2 L88 369.9 L94.8 376 L96 379.9 L96.9 384 L96 388 L94.9 392 L88 397.5 L84.3 400 L80 402.1 L73.5 400 L73.6 392 L75.6 384 L79 376 M156.9 632 L154.2 624 L153.8 616 L154.2 608 L152 604.2 L148.2 600 L144 597.4 L136 594.4 L132.5 592 L133.1 584 L136 581.1 L140.6 576 L144 572.8 L149.2 568 L152 566.1 L160 562.4 L168 560.1 L168.6 560 L176 558.9 L183.9 560 L184 560 L192 564.5 L197.4 568 L200 569.5 L208 574.8 L209.3 576 L214.8 584 L216 586.2 L218.5 592 L221.4 600 L224 603.4 L227.6 608 L232 612.9 L234.6 616 L238.7 624 L240 627.2 L242.5 632 M632 208.7 L629.5 208 L624 206 L616.1 200 L616 199.9 L608 194.8 L603.6 192 L600 189.4 L594.8 184 L592 178.3 L590.9 176 L592 173.3 L596.7 168 L600 167.1 L608 164.9 L614.7 160 L616 158.4 L621.7 152 L624 150.1 L632 149 M632 375.3 L628.6 376 L624 377.3 L616 380.1 L608 379.2 L604.8 376 L600 371.1 L597.1 368 L592 363.6 L587.9 360 L584 353.1 L583.5 352 L581.3 344 L576.2 336 L576 334.8 L575.1 328 L576 327.2 L584 322.1 L586.5 320 L592 315 L595.5 312 L600 307.7 L608 304.1 L608.2 304 L616 298 L617.3 296 L624 290.9 L629.3 288 L632 286.7 M341 632 L339.1 624 L336.6 616 L336 613.6 L333.9 608 L332.7 600 L336 595.4 L339.4 592 L342.3 584 L336.7 576 L336 574.9 L332 568 L336 560.3 L336.2 560 L344 553.4 L345.8 552 L351 544 L346.8 536 L344 532.6 L338.5 528 L336 525.8 L328.2 520 L328 519.8 L322.2 512 L320 508.7 L316 504 L312 500.2 L307.9 496 L304 490.2 L303.1 488 L303.5 480 L304 476.8 L304.8 472 L304 468.4 L302.9 464 L300 456 L296 449.7 L290.2 448 L288 447.7 L286.9 448 L280 449.6 L272 450.3 L264 452 L256 450.7 L253 448 L248.6 440 L251.7 432 L253.8 424 L252.3 416 L248 410.8 L245.2 408 L245.4 400 L247.3 392 L248 389.7 L250.5 384 L256 376.6 L256.6 376 L264 368.9 L265 368 L268.3 360 L272 354.8 L280 352.4 L281.6 352 L288 349.6 L296 347.2 L304 348.1 L312 349.3 L319.9 352 L320 352 L328 355.8 L333.1 360 L336 364.9 L338.9 368 L344 370.6 L352 369.8 L360 369.7 L368 370.9 L376 373.4 L379.3 376 L384 380.6 L387.4 384 L391.4 392 L386.3 400 L384 401.5 L376 407.1 L374.1 408 L368 410 L360 414.1 L357.7 416 L352 421.1 L346.8 424 L344 427.6 L337.4 432 L344 439.1 L344.8 440 L352 444.3 L355.1 448 L359 456 L359.3 464 L360 466.9 L361.7 472 L367.4 480 L368 480.9 L373 488 L376 491.4 L382.8 496 L384 497 L392 503.9 L392 504 L396.7 512 L400 514.4 L407.4 520 L408 520.4 L416 522.2 L424 524 L432 527.1 L434.2 528 L440 530.7 L448 533.1 L454.5 536 L454.8 544 L449.7 552 L448 554.8 L444.1 560 L440 565.4 L437.8 568 L436.4 576 L438.8 584 L438.2 592 L438.2 600 L440 602.8 L444.4 608 L448 611 L454.5 616 L456 616.9 L464 620.8 L469.3 624 L472 627.7 L474.1 632 M85.6 384 L88 382.3 L88.9 384 L88 386.2 L85.6 384 M162.8 632 L160.7 624 L160 619 L159.6 616 L160 612.8 L160.5 608 L160 606.9 L155.9 600 L152 595.6 L145.9 592 L144 588.6 L142.1 584 L144 581.8 L148.4 576 L152 572.7 L160 568.5 L162 568 L168 566.4 L176 565.9 L184 567.6 L184.7 568 L192 572.4 L199.9 576 L200 576.1 L206.6 584 L208 587.4 L209.5 592 L212.8 600 L216 603.9 L218.9 608 L224 613.6 L226.1 616 L231.6 624 L232 624.8 L234.8 632 M632 201.5 L628 200 L624 198.2 L616 193.3 L614.1 192 L608 186.6 L604.6 184 L602.1 176 L608 173 L616 168.6 L616.7 168 L623 160 L624 158.9 L632 155.9 M632 371.9 L624 373.6 L616 374.3 L608 372.4 L603.7 368 L600 365.4 L593.9 360 L592 356.6 L589.2 352 L587.4 344 L585.4 336 L588.9 328 L592 325.4 L596.3 320 L600 316.7 L608 314.5 L616 313 L618.6 312 L624 306.1 L625.8 304 L629.1 296 L632 294.4 M345.7 632 L344 625.8 L343.5 624 L341 616 L339.7 608 L341.9 600 L344 597.8 L349.5 592 L348.4 584 L344 577.4 L342.9 576 L338.2 568 L342.1 560 L344 558.4 L352 552.3 L352.4 552 L356.9 544 L352.3 536 L352 535.6 L345.9 528 L344 525.7 L337.3 520 L336 518.7 L329.8 512 L328 510.2 L323.5 504 L320 499.2 L316.6 496 L312 490.3 L310.3 488 L309.4 480 L309.9 472 L307.9 464 L306 456 L304 449.6 L303.2 448 L296.9 440 L296 439.6 L294.8 440 L288 442.8 L280 445.1 L272 445.9 L264 445.5 L257.7 440 L258 432 L259.5 424 L258.5 416 L256 412.2 L252.5 408 L250.9 400 L252.8 392 L256 385.6 L257 384 L264 377.5 L267.2 376 L272 372 L275.4 368 L280 360.7 L280.8 360 L288 357.4 L296 356.5 L304 358.1 L312 359.5 L313.7 360 L320 362.6 L324.6 368 L327 376 L328 379.1 L336 383 L344 380 L352 377 L360 376.1 L368 377.6 L376 383.1 L377 384 L377.2 392 L376 395 L373 400 L368 401.9 L362.9 408 L360 409.6 L352.4 416 L352 416.3 L344 421.5 L336 423.5 L335 424 L328.2 432 L332.7 440 L336 443 L344 447.9 L344.2 448 L352 452.2 L354.4 456 L355.5 464 L356.9 472 L360 479.3 L360.4 480 L366.1 488 L368 492.9 L370.5 496 L376 501.5 L379.3 504 L384 507.4 L387.5 512 L392 517.8 L395.9 520 L400 521.6 L408 526.2 L416 527.9 L416.4 528 L424 529.7 L432 532.8 L439.9 536 L440 536.2 L445.3 544 L443.9 552 L440 557.1 L436.9 560 L432 566.3 L431.3 568 L430.7 576 L432 582.7 L432.3 584 L432 587.7 L431.7 592 L432 600 L432 600.1 L436.3 608 L440 611.1 L445.9 616 L448 617.3 L456 621.6 L460.3 624 L464 626.6 L468.5 632 M168.1 632 L168 630.8 L167.2 624 L165.3 616 L165 608 L161.5 600 L160 597.5 L155.2 592 L152 584.8 L151.5 584 L152 583.2 L156.8 576 L160 574 L168 572.6 L176 573.8 L182.3 576 L184 577.1 L192 583.7 L192.3 584 L197 592 L200 596.9 L202 600 L208 605.3 L210.4 608 L216 614.5 L217.4 616 L223.1 624 L224 627.5 L225.5 632 M632 193.4 L629 192 L624 187.7 L618.9 184 L619.5 176 L624 171.9 L627 168 L632 163.4 M632 368.6 L624 370.2 L616 369.5 L612.2 368 L608 366.2 L600 360.6 L599.3 360 L594.8 352 L593.4 344 L593.2 336 L597.5 328 L600 325 L608 322.4 L616 321.4 L619.8 320 L624 318.1 L632 314.3 M350 632 L348.1 624 L346 616 L346 608 L352 600.6 L352.5 600 L356 592 L354 584 L352 580.8 L348.9 576 L345.1 568 L348.9 560 L352 557.7 L360 552.1 L360.2 552 L362.7 544 L360 538.2 L358.8 536 L352.7 528 L352 526.8 L346.7 520 L344 517.4 L338.3 512 L336 510.4 L329.6 504 L328 502.1 L323.6 496 L320 489.5 L318.8 488 L316.1 480 L315 472 L312.8 464 L312 459 L311.5 456 L309.4 448 L305.9 440 L304 438.6 L296 435 L288 437 L280.2 440 L280 440.1 L272 441.2 L268.3 440 L264 432 L266 424 L264.2 416 L264 415.7 L259 408 L256.9 400 L259 392 L264 384.4 L264.4 384 L272 379.6 L277.7 376 L280 373.3 L286.7 368 L288 366.8 L296 363.8 L304 365.7 L309.2 368 L312 370.5 L315.6 376 L317.2 384 L319.8 392 L320 392.4 L328 396.2 L336 393.2 L338.6 392 L344 388.7 L352 384.1 L352.5 384 L360 383.1 L363.7 384 L366.9 392 L362.7 400 L360 403.1 L356.6 408 L352 411.9 L346.6 416 L344 417.7 L336 419.3 L328 422.6 L326.3 424 L321.8 432 L324.6 440 L328 442.6 L333.9 448 L336 449.4 L344 453.5 L347.9 456 L351.7 464 L352 467.6 L352.4 472 L355.4 480 L359.9 488 L360 488.2 L363.8 496 L366.6 504 L368 506.5 L375.5 512 L376 512.3 L384 518.7 L385 520 L392 526.4 L396.3 528 L400 529.1 L408 531.5 L416 533.3 L424 536 L424.1 536 L432 540.6 L435.3 544 L436.3 552 L432 556 L429.8 560 L426.6 568 L425.6 576 L426.8 584 L426.4 592 L425.4 600 L428 608 L432 611.8 L437 616 L440 618 L448 622.6 L450.7 624 L456 626.9 L462.8 632 M173 632 L172.1 624 L170.8 616 L169.9 608 L168 604.4 L166.1 600 L162.4 592 L160 586 L159.3 584 L160 583 L168 581.3 L172.3 584 L176 585.9 L184 590.2 L185.9 592 L192 598.8 L192.8 600 L200 607 L201.1 608 L208 614.5 L209.3 616 L215.2 624 L215.6 632 M632 360.2 L624 362 L616 360.6 L614.9 360 L608 352.1 L607.9 352 L608 350.8 L608.7 344 L616 336.2 L616.5 336 L624 332.6 L632 328 M286.4 384 L288 383.1 L296 379.5 L301.7 384 L303.7 392 L304 394.1 L304.9 400 L309.9 408 L312 409.4 L318.5 416 L314.7 424 L312 427.5 L304 427.3 L296 425.7 L288 425.8 L282 424 L280 423.2 L274.9 416 L272 408.7 L271.6 408 L271.3 400 L272 397.5 L274.1 392 L280 387.6 L286.4 384 M327.1 456 L328 455.7 L328.6 456 L336 460.5 L339.7 464 L344 472 L344 472 L345.2 480 L348.9 488 L352 492.6 L353.6 496 L353.5 504 L352 506.1 L344 504.1 L343.9 504 L336 496.6 L335.5 496 L332.8 488 L330.2 480 L328 477.2 L325.4 472 L323 464 L327.1 456 M361.8 632 L360 626.8 L359.2 624 L360 619.4 L362.3 616 L368 611.1 L369.2 608 L369 600 L368 596.8 L366.8 592 L367.4 584 L368 579.8 L368.6 576 L368 572.7 L366.6 568 L368 566.6 L375.4 560 L376 559.2 L379.7 552 L378.1 544 L376 537 L375.7 536 L376 535.6 L376.9 536 L384 538.2 L392 540.1 L400 542.4 L408 543.2 L412 544 L416 545.6 L420.7 552 L419 560 L416 567.2 L415.6 568 L413 576 L414.4 584 L415.4 592 L414.8 600 L415.3 608 L416 609.4 L419.7 616 L424 622.3 L426.6 624 L424 630.6 L423.4 632 M182.3 632 L181.8 624 L184 617.6 L192 618.1 L197.2 624 L200 628.3 L202.5 632 M632 348.9 L630 352 L624 355 L616 353.4 L614.7 352 L616 347.9 L621.6 344 L624 343.1 L632 339.9 M291.6 392 L296 391.2 L296.4 392 L298.6 400 L300.6 408 L304 414 L307.4 416 L304 419 L296 420.3 L288 421.5 L280 416.8 L279.4 416 L276.9 408 L278 400 L280 396.7 L288 392.4 L291.6 392 M369.1 632 L371.8 624 L376 619.9 L378.5 616 L376.3 608 L376 606.4 L375.2 600 L375.9 592 L376 591.8 L378.8 584 L378.9 576 L382.9 568 L384 567.2 L392 561.2 L393 560 L400 552.7 L408 559 L408.5 560 L408 563 L407.1 568 L406.3 576 L408 579.8 L409.2 584 L410.8 592 L410 600 L410.2 608 L414.4 616 L416 620.1 L418.4 624 L416 627.6 L409.2 632 M191.9 632 L192 631.7 L192.1 632 M282.2 408 L288 400.5 L294.5 408 L292.9 416 L288 417.5 L285.5 416 L282.2 408 M396.9 584 L400 582.6 L400.5 584 L402 592 L402.6 600 L404.7 608 L408 612.5 L409.9 616 L410.1 624 L408 625.6 L400 625.1 L397.3 624 L392 620.3 L389 616 L385.2 608 L384.1 600 L390.5 592 L392 587.5 L396.9 584 M287.9 408 L288 407.8 L288.1 408 L288 408.3 L287.9 408" stroke-width="0.55"/>
<path d="M0 178 L8 176.6 L12.8 176 L16 175.4 L23.1 176 L24 176.1 L32 177.7 L39.4 184 L40 184.4 L48 187.4 L53.7 184 L56 183.6 L56.3 184 L56 185.2 L50.9 192 L50 200 L52.2 208 L56 212.5 L62.1 216 L64 217 L64.7 216 L65.6 208 L67.2 200 L68.9 192 L72 187.3 L74.2 184 L80 177.2 L81.7 176 L83.6 168 L80 163.7 L78.2 160 L74 152 L72 148.6 L69 144 L64 138.3 L62.1 136 L56.3 128 L56.6 120 L59.8 112 L63.2 104 L64 102.5 L67.7 96 L71.3 88 L72 84.4 L73.3 80 L74.3 72 L72 68.9 L64.1 64 L64 64 L56 58.7 L53.5 56 L48 50.4 L44.7 48 L40 44.5 L34.4 40 L32 34.3 L31.1 32 L28.3 24 L32 16.8 L32.3 16 L40 9.7 L48 8.4 L56 8.8 L64 9.1 L67.9 8 L72 1.7 L72.8 0 M311.9 0 L312 0.3 L317.5 8 L320 15.8 L320.1 16 L320 16.4 L319.4 24 L318.7 32 L315.3 40 L313.7 48 L317.6 56 L319.9 64 L319 72 L316.9 80 L316.4 88 L315.5 96 L315.3 104 L317.2 112 L320 117.4 L321.4 120 L325.8 128 L328 133.8 L328.9 136 L331.3 144 L336 151.9 L336.1 152 L336.7 160 L336 162.1 L334.6 168 L334.8 176 L336 181 L337.4 184 L336.3 192 L336 195.5 L335.7 200 L336 201.5 L344 206.4 L347.6 208 L352 210.2 L360 215.4 L360.6 216 L368 222.4 L369.2 224 L375.4 232 L376 234.5 L378 240 L382 248 L384 249.1 L390.1 256 L392 258.4 L395.3 264 L400 267.3 L407.7 272 L408 272.2 L415.8 280 L416 280.3 L423.8 288 L424 288.1 L432 295.7 L432.2 296 L435.4 304 L436 312 L436.3 320 L438.8 328 L440 330.8 L443.2 336 L447.7 344 L448 345.6 L449.6 352 L452.9 360 L455.5 368 L456 369.7 L459.4 376 L464 382.1 L465.9 384 L472 391.6 L472.3 392 L476.4 400 L478.9 408 L479.3 416 L479.3 424 L480 428.3 L480.7 432 L482.5 440 L483 448 L488 449.2 L496 453.1 L500.5 456 L504 458.7 L507.7 464 L509.1 472 L510.5 480 L512 485.8 L512.7 488 L517 496 L520 498.8 L528 503 L530.2 504 L536 506.4 L542.1 512 L544 515.6 L545.3 520 L544.1 528 L552 534.6 L560 534.6 L561.4 536 L564.9 544 L568 551.1 L568.4 552 L573.3 560 L575.8 568 L576 568.4 L583.8 576 L584 576.1 L592 581.9 L594 584 L597.5 592 L600 600 L600 600 L601.2 608 L602 616 L603.1 624 L608 629 L613.9 632 M401.5 0 L404 8 L402.8 16 L400 22.1 L398.6 24 L394.6 32 L393 40 L392.2 48 L393.5 56 L392 58.7 L384.5 64 L384 64.3 L380.4 72 L378.9 80 L380.6 88 L383.7 96 L384 97.4 L384.8 104 L386 112 L386.4 120 L386.9 128 L390.1 136 L392 138.5 L396.9 144 L396.4 152 L393.6 160 L395.8 168 L400 170.8 L406.2 176 L408 177.6 L416 183.5 L417 184 L424 189.9 L425.9 192 L426.7 200 L429 208 L432 211.3 L437 216 L440 220.9 L442.6 224 L448 230.8 L449.7 232 L456 236.5 L460.3 240 L464 245 L465.5 248 L470 256 L472 261.7 L472.6 264 L474.3 272 L480 279.1 L481.2 280 L484.4 288 L485.6 296 L488 302.6 L488.5 304 L492.3 312 L496 317.6 L497.6 320 L502.3 328 L504 330.9 L507.3 336 L511 344 L512 345.4 L515.5 352 L520 359.7 L520.2 360 L524.3 368 L527.1 376 L528 378.2 L529.9 384 L532.3 392 L534.1 400 L535.2 408 L536 410.1 L538 416 L541.3 424 L544 430 L544.8 432 L548.9 440 L552 443.5 L556.7 448 L560 451.6 L565 456 L568 458.1 L576 463 L577.9 464 L584 468.3 L592 471.5 L593.8 472 L600 475.1 L608 478.4 L608.3 480 L609.6 488 L615.3 496 L616 496.6 L622.2 504 L624 506.4 L628.1 512 L632 517.3 M541.2 536 L544 528.2 L549.7 536 L544 539.1 L541.2 536 M632 416 L624 419.9 L618.6 424 L616 426.5 L609.4 432 L608 433.3 L601.4 440 L600 441.3 L592 443.3 L584 440 L584 440 L576 432.2 L575.9 432 L572 424 L570.8 416 L570.7 408 L568.6 400 L568 399.4 L563.3 392 L560 388.3 L557.5 384 L554 376 L552 369.7 L551.5 368 L549.7 360 L545.4 352 L544 350 L540.6 344 L537.2 336 L536 332.8 L533.8 328 L533.1 320 L534.5 312 L534.4 304 L534.7 296 L536 291.6 L537.5 288 L542.5 280 L544 278.7 L548.9 272 L552 268 L555.8 264 L560 258 L561.8 256 L564 248 L560 246.7 L552 247 L548.3 248 L544 249.4 L536 250.4 L528 250.7 L520 249.6 L516.5 248 L512 245.3 L504.6 240 L504 239.3 L496 232.6 L495.2 232 L488 226.6 L485.3 224 L481.9 216 L480 210.4 L478.7 208 L472 204.9 L467.2 200 L464 194.8 L461.9 192 L457.2 184 L456 181.9 L449.7 176 L448 174.9 L442.2 168 L440.8 160 L441.5 152 L440.3 144 L440 143.5 L435.7 136 L432.6 128 L433.3 120 L434 112 L435.8 104 L440 99.1 L445.1 96 L448 92.8 L449.3 88 L449.6 80 L448 75.5 L446.7 72 L443 64 L440 58.5 L438.2 56 L432 48.7 L431.5 48 L428.1 40 L428.1 32 L431.3 24 L432 22.7 L440 18.5 L448 18 L456 21.9 L464 23.9 L464.4 24 L472 24.6 L476.7 24 L480 23.1 L488 17.2 L489.7 16 L496 11.1 L504 8.5 L509.1 16 L512 19.9 L513.2 24 L514.4 32 L514.6 40 L517 48 L520 54.1 L521.3 56 L527.4 64 L528 64.6 L535.8 72 L536 72.2 L544 77.1 L547.3 80 L551.6 88 L552 88.6 L556.7 96 L560 99 L564.7 104 L568 108.4 L574.7 112 L576 112.9 L576.8 112 L582.2 104 L584 101.9 L592 96.5 L594 96 L600 93.6 L608 89.2 L609.6 88 L608 86 L601.4 80 L600 79.6 L592 76.9 L584.1 72 L584 71.9 L578.1 64 L576 59.3 L574.7 56 L572.2 48 L568 41.2 L567.2 40 L562.8 32 L563.8 24 L564.8 16 L565.1 8 L568 2.8 L576 3.2 L584 5.6 L592 7.9 L600 7.2 L608 6.8 L616 7.1 L624 7.8 L632 6.7 M206 32 L208 30.1 L216 28.1 L217.7 32 L217.3 40 L216 43.8 L208 42.7 L205.5 40 L206 32 M196.2 56 L200 51 L208 51.2 L216 49.8 L224 51.2 L226.2 56 L227.4 64 L231.9 72 L232 72.1 L240 78.1 L241.8 80 L246.8 88 L248 90.9 L250.4 96 L252 104 L250.3 112 L249.2 120 L251.3 128 L256 135.6 L256.3 136 L258.7 144 L256 149.3 L254.3 152 L250 160 L248.9 168 L248 168.6 L245.8 168 L240 166.2 L232.3 160 L232 159.9 L224 153.5 L222.7 152 L217.2 144 L216 140.4 L213.8 136 L214.6 128 L214.6 120 L216 113.5 L216.9 112 L216 110.3 L208 106.9 L200 106.7 L192 108.3 L184 111.5 L176 109.6 L168 105.7 L166.7 104 L166.4 96 L168 91.9 L168.8 88 L171.1 80 L176 77.7 L184 73.9 L186.4 72 L192 65.1 L192.5 64 L196.2 56 M145.6 80 L152 75.5 L160 79.4 L161.7 80 L160 82 L153.7 88 L152 88.2 L151.4 88 L145.6 80 M0 345.9 L8 346.2 L11.7 344 L16 341.3 L20.2 336 L23.4 328 L24 325.7 L25.5 320 L29.4 312 L32 307.9 L34.7 304 L40 298.6 L45.7 296 L48 294.3 L56 290.6 L59.5 288 L64 284.6 L72 284.1 L79.9 288 L80 288.1 L86.9 296 L88 297.2 L92.4 304 L96 310.3 L97.1 312 L99.9 320 L101.5 328 L104 335.7 L104.1 336 L109.7 344 L112 347.4 L115.3 352 L119.8 360 L120 360.4 L123.6 368 L127.9 376 L128 376.2 L130.9 384 L132.6 392 L132.6 400 L133 408 L136 413.6 L137 416 L140 424 L141.4 432 L143.8 440 L144 440.4 L149.9 448 L152 451.5 L156.1 456 L160 460.5 L162.9 464 L165.6 472 L168 479.9 L168 480 L171.5 488 L171.5 496 L174.2 504 L176 505.2 L184 508.6 L191.4 512 L192 512.3 L200 516.3 L207.5 520 L208 520.2 L216 524.5 L221.1 528 L224 530 L232 536 L232 536 L240 542.8 L241.4 544 L246.5 552 L247.5 560 L248 562.7 L252.2 568 L255.6 576 L256 576.5 L256.4 576 L257.4 568 L259.6 560 L262.3 552 L263.9 544 L264 543.9 L268.6 536 L272 529.5 L272.8 528 L272 527.3 L267.2 520 L264.5 512 L264 509.8 L261 504 L256 497.7 L254.7 496 L248 491.9 L243.8 488 L240 485.5 L233.8 480 L232 478.1 L225.6 472 L224 470.8 L216 466.3 L212.1 464 L208 460.6 L204.3 456 L201.1 448 L200 447 L193.9 440 L192 436.9 L189.5 432 L188.2 424 L185.7 416 L184 411.7 L182.5 408 L180.9 400 L180.7 392 L182.8 384 L184 382 L189.3 376 L190.4 368 L184 364.6 L177.7 360 L176 358.6 L171.2 352 L168 346.6 L166.6 344 L162.5 336 L160 331.3 L158.4 328 L158 320 L157.1 312 L152 306.2 L150.3 304 L146.3 296 L146.6 288 L144.8 280 L144 274 L143.8 272 L142.6 264 L140.6 256 L144 248 L143 240 L136 232.7 L135.1 232 L136 231.3 L144 228.5 L152 231 L154.4 232 L160 234.7 L168 235.4 L176 232.1 L176.1 232 L180.8 224 L180.4 216 L182.6 208 L184 205.4 L188 200 L192 196.3 L200 194 L206.7 192 L208 191.5 L216 187.4 L223.9 184 L224 184 L224.4 184 L232 184.7 L237.7 192 L234.7 200 L232.9 208 L236.6 216 L240 221.2 L241.7 224 L242.8 232 L242.6 240 L245.4 248 L248 250.9 L254 256 L256 257.8 L260 264 L264 267.6 L271.1 264 L272 263.6 L280 262.4 L288 260.4 L296 259.8 L304 261.3 L310.3 264 L312 264.8 L320 268.7 L328 270.2 L336 270 L343.3 272 L344 272.5 L348.7 280 L352 285 L354.1 288 L360 293 L363.6 296 L368 299.2 L376 302.9 L378.4 304 L384 307.5 L392 311.3 L393.5 312 L400 315.4 L407.7 320 L408 320.3 L411.2 328 L414.6 336 L416 339 L418.5 344 L423.2 352 L424 353.1 L429.4 360 L432 367.4 L432.3 368 L432 369.6 L431.2 376 L430.4 384 L432 391.9 L432 392 L436.8 400 L440 405.4 L441.8 408 L444.1 416 L442.9 424 L440 428.1 L434.8 432 L432 432.8 L424 436.3 L416 439.4 L413.2 440 L408 441.2 L400.7 448 L400 451.4 L399.3 456 L400 456.9 L408 461.2 L416 463.8 L416.4 464 L424 471.3 L424.5 472 L424 473.8 L422.6 480 L424 485.9 L426.7 488 L432 489 L440 491.3 L446.8 496 L448 496.7 L456 498.4 L462 496 L464 495.1 L472 494.4 L475.4 496 L480 499.2 L483 504 L484.8 512 L487.9 520 L488 520.1 L496 525.9 L500.6 528 L504 533.4 L504.8 536 L504 538.6 L502.7 544 L496.6 552 L496 552.5 L488 557.3 L483.8 560 L480 563.6 L476.1 568 L473.4 576 L477.6 584 L480 584.5 L481.5 584 L488 582 L496 581.4 L500.5 584 L504 587.6 L507.1 592 L512 596.7 L520 599 L528 597.6 L536 592.4 L538.3 592 L544 590.5 L545.2 592 L549.5 600 L552 605 L553.4 608 L558.1 616 L559.7 624 L560 626.2 L560.7 632 M0 293.9 L0.2 296 L0 296.8 M0 380.7 L1.1 384 L6 392 L8 392.6 L16 395.7 L24 399.9 L24.1 400 L30.2 408 L32 409.7 L39.5 416 L40 416.4 L48 421.1 L51.3 424 L56 429.1 L60.3 432 L64 437.5 L65.3 440 L65 448 L64 450.1 L56 452.9 L48 453.3 L40 452.4 L32 456 L32 456 L28.2 464 L31.4 472 L32 472.5 L40 475.7 L48 476.5 L53.7 480 L56 481.5 L64 486.1 L70.9 488 L72 488.5 L76.8 496 L77 504 L80 508.7 L84.1 512 L88 515.3 L93.2 520 L95 528 L92.8 536 L88 538.2 L82.2 536 L80 535.6 L78.3 536 L79.5 544 L80 544.3 L84.6 552 L88 555.2 L92.4 560 L95.7 568 L95.7 576 L96 578.5 L96.7 584 L97.1 592 L98.2 600 L101.4 608 L104 612.4 L107 616 L111.1 624 L112 626 L114 632 M17.2 520 L24 512.9 L32 517.3 L34.6 520 L33.4 528 L32 528.1 L31.7 528 L24 521.2 L17.2 520 M0 540.7 L2.9 544 L8 551.6 L8.1 552 L8 552.3 L0 556.4 M632 57 L630.9 56 L625.9 48 L632 43.5 M632 221.6 L624 219.8 L616.1 216 L616 215.9 L608 211.8 L600 210.7 L592 211.1 L584 211 L577.6 208 L576 206.1 L568 201.3 L560 206 L557.6 208 L552 210.5 L544 214.6 L542 216 L536 223.5 L533.7 224 L528 224.5 L527 224 L520 218.7 L518.3 216 L519.6 208 L520 206.8 L521.9 200 L525.3 192 L527.5 184 L520 177.2 L517.8 176 L512 174 L504 172.7 L496 171.3 L490.2 168 L488 165.6 L483.7 160 L480 156.7 L475.6 152 L472 145 L471.7 144 L472 142 L473.9 136 L476.9 128 L478.2 120 L479.7 112 L480 110.5 L481.6 104 L481.4 96 L481.1 88 L481.8 80 L484.3 72 L488 69.5 L491.3 72 L496 75.1 L502.2 80 L504 81.8 L508.3 88 L512 92.7 L514 96 L518.3 104 L520 107.1 L523.5 112 L528 117.5 L530.6 120 L536 124.8 L541 128 L540.9 136 L540.9 144 L543.5 152 L544 153.3 L547.1 160 L548.4 168 L552 175.7 L560 169 L562 168 L568 166.2 L572.4 160 L576 156.7 L584 153.2 L592 155.6 L600 155.2 L605.9 152 L608 147.8 L609.4 144 L615.1 136 L616 135.1 L624 132.4 L632 131.2 M632 383.7 L631 384 L624 388 L617.1 392 L616 392.7 L608 393.7 L605.4 392 L600 387 L598.1 384 L592.3 376 L592 375.7 L584 368.5 L583.5 368 L576.5 360 L576 358.8 L573.6 352 L568.1 344 L568 343.9 L562 336 L560 330.3 L559.2 328 L560 327.1 L567.3 320 L568 319.1 L575.7 312 L575.1 304 L575.3 296 L576 293.8 L579.8 288 L584 284.8 L592 285.1 L600 284.9 L608 282.5 L613.4 280 L616 278.3 L624 272.9 L625.6 272 L632 267.6 M315.6 632 L313.4 624 L318.1 616 L317.8 608 L312.3 600 L312 599.6 L304 592.3 L303.8 592 L296 584.7 L295.7 584 L296 583 L304 577.4 L312 578.2 L320 576.2 L320.2 576 L320.2 568 L320 565.7 L319.4 560 L320 559.1 L327.8 552 L328 551.8 L336 545.7 L337.4 544 L336 540.9 L333.1 536 L328 532.8 L320 528.4 L319.1 528 L312 524.6 L304.4 520 L304 519.4 L299.1 512 L296 506 L293.9 504 L291.6 496 L291.1 488 L292.2 480 L292.8 472 L290.1 464 L288.7 456 L288 455.5 L285.8 456 L280 458.4 L272 459.7 L264 463.5 L261.9 464 L256 466.8 L250.8 464 L248 462.5 L242.8 456 L240 452.5 L235.7 448 L233.6 440 L238.2 432 L240 425.4 L240.5 424 L240 423.3 L232 417.4 L229.3 416 L224 409.1 L223.3 408 L224 407.2 L231.2 400 L232 399.4 L236.3 392 L238.5 384 L240 377.9 L240.6 376 L245.1 368 L248 360.8 L248.3 360 L248 359.6 L240 353.5 L237.7 352 L232 348.7 L224 344.9 L222.5 344 L224 339.2 L225.3 336 L232 332.4 L240 331.6 L248 333 L256 334.2 L264 333.4 L272 330.7 L277.2 328 L280 326.6 L286.7 320 L288 318.3 L292 312 L296 308.5 L304 306.4 L309.6 312 L312 314.1 L318 320 L320 323 L323.9 328 L326.9 336 L328 336.9 L336 341 L343.7 344 L344 344.1 L352 347.7 L360 351.5 L361 352 L368 355.3 L376 357.9 L378.8 360 L384 363 L389 368 L392 371.1 L396.4 376 L400 380.1 L402.4 384 L405.2 392 L405.9 400 L403.2 408 L400 409.2 L392 410.4 L384 413.6 L378.4 416 L376 417 L368 420.4 L362 424 L361.8 432 L368 439.8 L368.1 440 L368.7 448 L368 452.9 L367.7 456 L368 463.3 L368 464 L372.5 472 L376 476.4 L379.9 480 L384 483.7 L392 487.3 L393.1 488 L400 494.7 L400.6 496 L404.1 504 L408 508 L416 511.4 L418.5 512 L424 513.3 L432 516.8 L437.1 520 L440 521.4 L448 523.5 L456 525.8 L458.9 528 L464 533.5 L466.5 536 L467.2 544 L464 547.4 L460.6 552 L456 558.2 L454.8 560 L450.8 568 L448.2 576 L448.7 584 L448.9 592 L450.7 600 L456 605.1 L460.4 608 L464 610 L472 611.3 L480 613 L482.9 616 L485 624 L486.2 632 M78.1 352 L80 350.2 L81.5 352 L88 359.4 L88.3 360 L96 367.9 L96.1 368 L101.6 376 L104 381.3 L105.6 384 L105.3 392 L104 393.8 L98 400 L96 401.2 L88 404.3 L80 407.7 L76.8 408 L72 408.4 L71.5 408 L67.3 400 L67.7 392 L68.8 384 L71.7 376 L72 374.8 L73.8 368 L76.2 360 L78.1 352 M150.1 632 L147.7 624 L148.2 616 L147 608 L144 604.8 L136 600.5 L135.1 600 L128 595.4 L124.8 592 L125.9 584 L128 581.1 L133.1 576 L136 573.1 L141.3 568 L144 565.9 L152 560.4 L152.9 560 L160 555.1 L167.2 552 L168 551.2 L176 549.1 L184 550.8 L186.2 552 L192 555.8 L196.1 560 L200 562.5 L206.8 568 L208 568.8 L215.6 576 L216 576.6 L220.9 584 L224 590.7 L224.7 592 L228.7 600 L232 604.1 L235.3 608 L240 613.6 L241.7 616 L245.4 624 L248 628.2 L250.8 632 M510 632 L512 630.9 L520 631.1 L521.3 632 M632 184.7 L631.2 184 L630.4 176 L632 174 M632 364.5 L624 366.4 L616 365 L608 361.1 L606.5 360 L600.4 352 L600.6 344 L602.4 336 L608 330.7 L615.5 328 L616 327.9 L624 324.7 L632 320.7 M287.3 376 L288 375.4 L296 371.3 L304 373.3 L306.9 376 L309.5 384 L311.1 392 L312 395 L314.5 400 L320 404 L328 404.1 L336 400 L336.1 400 L344 396.4 L352 393.6 L355.8 400 L352 406.4 L350.9 408 L344 412.7 L336 414.4 L331.6 416 L328 417 L320 423.5 L319.7 424 L314.4 432 L312 436.1 L304 432.3 L303.1 432 L296 430.4 L288 430.7 L280 431.5 L273.3 424 L272 421.5 L269.9 416 L265 408 L264 400.7 L263.9 400 L264 399.6 L266 392 L272 385.6 L274.2 384 L280 380.6 L287.3 376 M355.4 632 L353.1 624 L352.3 616 L356.3 608 L360 604 L362 600 L361.5 592 L360 584.8 L359.8 584 L356.2 576 L353 568 L358.7 560 L360 559.2 L368 553.8 L369.5 552 L368.7 544 L368 542.9 L364.9 536 L360.1 528 L360 527.8 L356.8 520 L352 516.1 L347.8 512 L344 509.7 L336.4 504 L336 503.7 L329.4 496 L328 492.3 L326.1 488 L323 480 L320.1 472 L320 471.7 L317.5 464 L316.8 456 L317.5 448 L320 445.1 L325 448 L328 449 L336 454.2 L339.2 456 L344 460.5 L346.3 464 L348.2 472 L350.4 480 L352 482.8 L354.9 488 L358.6 496 L360 501.4 L360.8 504 L363.4 512 L368 516.3 L375.1 520 L376 520.6 L383.5 528 L384 528.4 L392 532.9 L400 535.5 L402.8 536 L408 536.8 L416 538.9 L424 542.8 L425.7 544 L428.3 552 L425 560 L424 562.6 L421.4 568 L419.5 576 L420.7 584 L420.9 592 L419.9 600 L421 608 L424 613.5 L426.6 616 L432 619.7 L439 624 L440 625.7 L448 630.3 L453.2 632 M177.8 632 L176.8 624 L176 616.2 L176 616 L175.4 608 L174.7 600 L176 598.2 L177.8 600 L184 604.3 L190.4 608 L192 608.8 L199.1 616 L200 617.1 L207.2 624 L208 625.7 L209.5 632" stroke-width="1"/>
</g>
</svg>